<svg width="114" height="71" viewBox="0 0 114 71" fill="none" xmlns="http://www.w3.org/2000/svg">
<path d="M66.2892 -7.97418e-06L45.607 -7.97418e-06L9.08686e-06 51.9708L113.487 51.9708L66.2892 -7.97418e-06Z" fill="url(#paint0_linear_90_3)"/>
<path d="M76.8789 44.1641L77.853 43.9993C77.853 43.9993 77.7902 42.2854 78.2929 41.791C78.89 41.791 80.7753 42.1206 80.9953 42.3513C81.2153 42.582 81.6552 43.406 81.4981 43.9004C81.3409 44.3948 79.5184 44.6255 78.5757 44.6255C77.5702 44.6255 77.0046 44.8233 77.0046 44.8233" fill="#AC202B"/>
<path opacity="0.1" d="M76.8789 44.1641L77.853 43.9993C77.853 43.9993 77.7902 42.2854 78.2929 41.791C78.89 41.791 80.7753 42.1206 80.9953 42.3513C81.2153 42.582 81.6552 43.406 81.4981 43.9004C81.3409 44.3948 79.5184 44.6255 78.5757 44.6255C77.5702 44.6255 77.0046 44.8233 77.0046 44.8233" fill="#AC202B"/>
<path d="M81.7542 58.6953C81.7542 58.6953 77.3235 59.6511 76.6637 60.5081C76.0038 61.365 76.1609 62.0901 76.1609 62.0901L79.3346 61.6287C79.3346 61.6287 79.5231 61.9253 79.5231 61.9583C79.9002 61.9912 81.9427 61.4639 81.7542 58.6953Z" fill="#1C1C1A"/>
<path d="M82.1281 64.8262C82.1281 64.8262 82.0339 68.0891 80.9341 68.0891C79.8343 68.0891 77.0691 68.1551 76.7863 68.0891C76.5034 68.0232 75.875 67.364 75.875 65.8479" fill="#1C1C1A"/>
<path d="M44.7969 44.1641L43.8228 43.9993C43.8228 43.9993 43.8856 42.2854 43.3828 41.791C42.7858 41.791 40.9004 42.1206 40.6805 42.3513C40.4605 42.582 40.0206 43.406 40.1777 43.9004C40.3348 44.3948 42.1574 44.6255 43.1 44.6255C44.1056 44.6255 44.6712 44.8233 44.6712 44.8233" fill="#C0252A"/>
<path opacity="0.1" d="M44.7969 44.1641L43.8228 43.9993C43.8228 43.9993 43.8856 42.2854 43.3828 41.791C42.7858 41.791 40.9004 42.1206 40.6805 42.3513C40.4605 42.582 40.0206 43.406 40.1777 43.9004C40.3348 44.3948 42.1574 44.6255 43.1 44.6255C44.1056 44.6255 44.6712 44.8233 44.6712 44.8233" fill="#C0252A"/>
<path d="M60.948 66.0809L70.5006 65.9161C70.5006 65.9161 71.7261 65.8502 72.3859 66.0809C73.0458 66.3116 81.0587 65.2569 81.0587 65.2569L81.1215 65.4217C81.1215 65.4217 81.8442 65.6525 82.127 64.6966C83.5096 54.6111 81.9699 49.4364 81.9071 48.9421C81.8442 48.4477 79.8017 46.9975 79.2676 46.6679C78.7648 46.3383 77.5393 45.2506 77.5393 45.2506C77.5393 45.2506 77.2565 44.7562 76.8794 43.7015C76.5024 42.6468 74.1142 36.3186 71.9146 35.6594C69.9035 35.0662 64.1532 34.5388 61.5136 34.5718C61.1051 34.5718 60.6966 34.5718 60.3196 34.5718C57.6486 34.5388 51.8668 35.0662 49.8243 35.6594C47.6247 36.3186 45.2366 42.6468 44.8595 43.7015C44.4824 44.7562 44.1996 45.2506 44.1996 45.2506C44.1996 45.2506 43.0056 46.3383 42.4714 46.6679C41.9686 46.9975 39.9261 48.4477 39.8318 48.9421C39.7376 49.4364 38.2293 54.644 39.6119 64.6966C39.8947 65.6854 40.6174 65.4217 40.6174 65.4217L40.6803 65.2569C40.6803 65.2569 48.6931 66.3116 49.353 66.0809C50.0129 65.8502 51.2383 65.9161 51.2383 65.9161L60.948 66.0809Z" fill="#E53E32"/>
<path d="M80.9963 60.9398C80.9963 60.9398 72.8892 61.7967 72.2294 61.9286C71.2238 62.1263 70.5011 62.2252 70.5011 62.2252L60.9486 62.39L51.396 62.2252C51.396 62.2252 46.714 61.3353 46.0541 61.566C45.3942 61.7967 41.1521 61.0716 41.1521 61.0716C41.1521 61.0716 39.2668 56.688 39.2039 54.9082C39.1096 57.3802 39.1725 60.6102 39.7381 64.6642C40.178 64.9938 40.8379 65.2245 40.8379 65.2245C40.8379 65.2245 48.8507 66.2792 49.5106 66.0485C50.1705 65.8178 51.396 65.8837 51.396 65.8837L60.9486 66.0485L70.5011 65.8837C70.5011 65.8837 71.7266 65.8178 72.3865 66.0485C73.0463 66.2792 81.0592 65.2245 81.0592 65.2245C81.0592 65.2245 81.4991 65.1915 82.159 64.6642C82.7246 60.6431 82.7875 57.3802 82.6932 54.9082C82.5989 56.688 80.9963 60.9398 80.9963 60.9398Z" fill="#AC202B"/>
<path d="M80.9958 49.3379C80.9958 49.3379 81.9385 52.3372 80.493 53.2271C79.2675 53.9522 78.8905 53.8863 78.8905 53.8863L77.7278 53.4908C77.7278 53.4908 75.0254 54.3148 73.9256 54.2159C72.8258 54.15 71.8203 53.326 71.8203 53.326C71.8203 53.326 73.36 50.8211 80.9958 49.3379Z" fill="#FCF5F5"/>
<path d="M49.0703 37.011H72.7631C72.7631 37.011 72.4175 36.3847 71.8519 35.6267C69.7151 35.0334 64.1847 34.539 61.5766 34.572C61.1681 34.572 60.7596 34.572 60.3825 34.572C57.8373 34.539 52.3697 35.0004 50.1701 35.5937C49.793 36.0222 49.3845 36.5495 49.0703 37.011Z" fill="#1C1C1A"/>
<path d="M76.4393 45.02C76.2193 43.405 73.8312 37.9997 72.5114 36.7802C71.3488 36.6154 68.2065 36.3517 65.4727 36.154C62.3933 35.9232 59.3453 35.9232 56.2658 36.121C53.5949 36.2858 50.5154 36.5165 49.3842 36.6813C48.0645 37.9008 45.802 43.5039 45.582 45.1189C46.5876 45.1189 60.9164 44.9212 60.9164 44.9212" fill="#FCF5F5"/>
<path d="M40.1804 58.6953C40.1804 58.6953 44.6424 59.6841 45.3337 60.541C45.9936 61.398 45.8365 62.156 45.8365 62.156L42.6313 61.6946C42.6313 61.6946 42.4114 61.9913 42.4114 62.0242C42.0343 62.0242 39.9604 61.4969 40.1804 58.6953Z" fill="#1C1C1A"/>
<path d="M67.4814 56.325H54.598C54.5666 56.325 54.5352 56.292 54.5352 56.259V55.6987C54.5352 55.6658 54.5666 55.6328 54.598 55.6328H67.4814C67.5128 55.6328 67.5442 55.6658 67.5442 55.6987V56.259C67.5757 56.292 67.5442 56.325 67.4814 56.325Z" fill="#1C1C1A"/>
<path d="M67.2011 57.8757H54.8519C54.8205 57.8757 54.7891 57.8428 54.7891 57.8098V57.2495C54.7891 57.2166 54.8205 57.1836 54.8519 57.1836H67.2011C67.2325 57.1836 67.2639 57.2166 67.2639 57.2495V57.8098C67.2954 57.8428 67.2639 57.8757 67.2011 57.8757Z" fill="#1C1C1A"/>
<path d="M66.885 59.4226H55.1957C55.1642 59.4226 55.1328 59.3897 55.1328 59.3567V58.7964C55.1328 58.7634 55.1642 58.7305 55.1957 58.7305H66.885C66.9164 58.7305 66.9478 58.7634 66.9478 58.7964V59.3567C66.9478 59.3897 66.9164 59.4226 66.885 59.4226Z" fill="#1C1C1A"/>
<path d="M60.5422 33.5493C60.228 33.5493 59.9766 33.2856 59.9766 32.956V17.564C59.9766 17.2344 60.228 16.9707 60.5422 16.9707C60.8564 16.9707 61.1078 17.2344 61.1078 17.564V32.956C61.1078 33.2856 60.8564 33.5493 60.5422 33.5493Z" fill="#1C1C1A"/>
<path d="M60.5422 33.5493C60.228 33.5493 59.9766 33.2856 59.9766 32.956V17.564C59.9766 17.2344 60.228 16.9707 60.5422 16.9707C60.8564 16.9707 61.1078 17.2344 61.1078 17.564V32.956C61.1078 33.2856 60.8564 33.5493 60.5422 33.5493Z" fill="#1C1C1A"/>
<path d="M60.5415 22.7058C60.3844 22.7058 60.2273 22.6399 60.133 22.5081L57.5564 19.5088C57.3364 19.278 57.3678 18.8825 57.5878 18.6848C57.8077 18.4541 58.1848 18.487 58.3733 18.7177L60.5729 21.2556L62.7411 19.0144C62.9611 18.7837 63.3067 18.7837 63.5267 19.0144C63.7467 19.2451 63.7467 19.6076 63.5267 19.8384L60.95 22.5081C60.8557 22.6399 60.6986 22.7058 60.5415 22.7058Z" fill="#1C1C1A"/>
<path d="M60.5415 22.7058C60.3844 22.7058 60.2273 22.6399 60.133 22.5081L57.5564 19.5088C57.3364 19.278 57.3678 18.8825 57.5878 18.6848C57.8077 18.4541 58.1848 18.487 58.3733 18.7177L60.5729 21.2556L62.804 18.8825C63.0239 18.6518 63.3696 18.6518 63.5895 18.8825C63.8095 19.1133 63.8095 19.4758 63.5895 19.7065L60.95 22.5081C60.8557 22.6399 60.6986 22.7058 60.5415 22.7058Z" fill="#1C1C1A"/>
<path d="M57.9678 32.461C57.8107 32.461 57.685 32.3951 57.5908 32.2962C57.3708 32.0655 57.3708 31.7029 57.5908 31.4722L60.2303 28.6707C60.3245 28.5718 60.4817 28.5059 60.6388 28.5059C60.7959 28.5059 60.9216 28.5718 61.0473 28.6707L63.6868 31.4393C63.9068 31.67 63.9068 32.0325 63.6868 32.2632C63.4668 32.494 63.1212 32.494 62.9012 32.2632L60.6702 29.9231L58.4077 32.3291C58.2506 32.3951 58.1249 32.461 57.9678 32.461Z" fill="#1C1C1A"/>
<path d="M60.5422 33.5493C60.228 33.5493 59.9766 33.2856 59.9766 32.956V17.564C59.9766 17.2344 60.228 16.9707 60.5422 16.9707C60.8564 16.9707 61.1078 17.2344 61.1078 17.564V32.956C61.1078 33.2856 60.8564 33.5493 60.5422 33.5493Z" fill="#1C1C1A"/>
<path d="M60.5422 33.5493C60.228 33.5493 59.9766 33.2856 59.9766 32.956V17.564C59.9766 17.2344 60.228 16.9707 60.5422 16.9707C60.8564 16.9707 61.1078 17.2344 61.1078 17.564V32.956C61.1078 33.2856 60.8564 33.5493 60.5422 33.5493Z" fill="#1C1C1A"/>
<path d="M60.5415 22.7058C60.3844 22.7058 60.2273 22.6399 60.133 22.5081L57.5564 19.5088C57.3364 19.278 57.3678 18.8825 57.5878 18.6848C57.8077 18.4541 58.1848 18.487 58.3733 18.7177L60.5729 21.2556L62.804 18.8825C63.0239 18.6518 63.3696 18.6518 63.5895 18.8825C63.8095 19.1133 63.8095 19.4758 63.5895 19.7065L60.95 22.5081C60.8557 22.6399 60.6986 22.7058 60.5415 22.7058Z" fill="#1C1C1A"/>
<path d="M57.9678 32.461C57.8107 32.461 57.685 32.3951 57.5908 32.2962C57.3708 32.0655 57.3708 31.7029 57.5908 31.4722L60.2303 28.6707C60.3245 28.5718 60.4817 28.5059 60.6388 28.5059C60.7959 28.5059 60.9216 28.5718 61.0473 28.6707L63.6868 31.4393C63.9068 31.67 63.9068 32.0325 63.6868 32.2632C63.4668 32.494 63.1212 32.494 62.9012 32.2632L60.6702 29.9231L58.4077 32.3291C58.2506 32.3951 58.1249 32.461 57.9678 32.461Z" fill="#1C1C1A"/>
<path d="M66.8286 29.7938C66.7343 29.7938 66.64 29.7608 66.5458 29.7279L53.9138 21.8506C53.6624 21.6858 53.5681 21.3233 53.7253 21.0596C53.8824 20.7959 54.228 20.697 54.4794 20.8618L67.1114 28.7391C67.3628 28.9039 67.4571 29.2665 67.2999 29.5301C67.2057 29.6949 67.0171 29.7938 66.8286 29.7938Z" fill="#1C1C1A"/>
<path d="M65.0075 31.2063C64.6933 31.2063 64.4733 30.9427 64.4419 30.646L64.3477 27.9763C64.3477 27.7127 64.4734 27.4819 64.7247 27.416L67.1757 26.4602C67.4585 26.3613 67.7727 26.4932 67.8984 26.7898C67.9927 27.0864 67.867 27.416 67.5842 27.5479L65.5103 28.3718L65.6046 30.6131C65.5731 30.9097 65.3218 31.1734 65.0075 31.2063Z" fill="#1C1C1A"/>
<path d="M54.2605 24.4533C54.0405 24.4533 53.8205 24.3214 53.7263 24.0578C53.632 23.7611 53.7577 23.4315 54.0405 23.2997L56.1144 22.4757L56.0201 20.2345C56.0201 19.9049 56.2401 19.6412 56.5543 19.6083C56.8371 19.5753 57.1199 19.839 57.1513 20.1686L57.2456 22.8383C57.2456 23.102 57.1199 23.3327 56.8685 23.3986L54.4176 24.3544C54.3861 24.4533 54.3233 24.4533 54.2605 24.4533Z" fill="#1C1C1A"/>
<path d="M54.2278 30.1217C54.0393 30.1217 53.8508 30.0228 53.7565 29.825C53.5994 29.5614 53.6937 29.1988 53.945 29.034L66.577 21.1567C66.8284 20.9919 67.1741 21.0908 67.3312 21.3545C67.4883 21.6182 67.394 21.9807 67.1427 22.1455L54.5107 30.0228C54.4164 30.0887 54.3221 30.1217 54.2278 30.1217Z" fill="#1C1C1A"/>
<path d="M67.143 24.6186C67.0801 24.6186 67.0173 24.6186 66.9544 24.5856L64.3778 23.5968C64.1578 23.5309 64.0321 23.3002 64.0007 23.0695L63.875 20.3009C63.875 19.9713 64.095 19.7076 64.4092 19.6747C64.692 19.6417 64.9748 19.9054 65.0062 20.235L65.1005 22.608L67.3315 23.465C67.6143 23.5639 67.7714 23.9264 67.6772 24.2231C67.5829 24.4538 67.3629 24.6186 67.143 24.6186Z" fill="#1C1C1A"/>
<path d="M56.7423 31.1744C56.4281 31.1744 56.1767 30.9107 56.1767 30.5811V28.3069L53.7886 27.0874C53.5058 26.9556 53.3801 26.593 53.5372 26.2964C53.6629 25.9998 54.0085 25.8679 54.2913 26.0327L56.9937 27.3841C57.1822 27.4829 57.3079 27.6807 57.3079 27.9114V30.5482C57.3079 30.9107 57.0566 31.1744 56.7423 31.1744Z" fill="#1C1C1A"/>
<mask id="mask0_90_3" style="mask-type:luminance" maskUnits="userSpaceOnUse" x="51" y="25" width="20" height="13">
<path d="M70.6303 25.4062H51.2109V37.3375H70.6303V25.4062Z" fill="white"/>
</mask>
<g mask="url(#mask0_90_3)">
<path d="M60.5422 33.5493C60.228 33.5493 59.9766 33.2856 59.9766 32.956V17.564C59.9766 17.2344 60.228 16.9707 60.5422 16.9707C60.8564 16.9707 61.1078 17.2344 61.1078 17.564V32.956C61.1078 33.2856 60.8564 33.5493 60.5422 33.5493Z" fill="#1C1C1A"/>
<path d="M60.5422 33.5493C60.228 33.5493 59.9766 33.2856 59.9766 32.956V17.564C59.9766 17.2344 60.228 16.9707 60.5422 16.9707C60.8564 16.9707 61.1078 17.2344 61.1078 17.564V32.956C61.1078 33.2856 60.8564 33.5493 60.5422 33.5493Z" fill="#1C1C1A"/>
<path d="M57.9678 32.4278C57.8107 32.4278 57.685 32.3619 57.5908 32.263C57.3708 32.0323 57.3708 31.6697 57.5908 31.439L60.2303 28.6375C60.3245 28.5386 60.4817 28.4727 60.6388 28.4727C60.7959 28.4727 60.9216 28.5386 61.0473 28.6375L63.6868 31.406C63.9068 31.6368 63.9068 31.9993 63.6868 32.23C63.4668 32.4607 63.1212 32.4607 62.9012 32.23L60.6702 29.8899L58.4077 32.2959C58.2506 32.3948 58.1249 32.4278 57.9678 32.4278Z" fill="#1C1C1A"/>
<path d="M60.5422 33.5493C60.228 33.5493 59.9766 33.2856 59.9766 32.956V17.564C59.9766 17.2344 60.228 16.9707 60.5422 16.9707C60.8564 16.9707 61.1078 17.2344 61.1078 17.564V32.956C61.1078 33.2856 60.8564 33.5493 60.5422 33.5493Z" fill="#1C1C1A"/>
<path d="M60.5422 33.5493C60.228 33.5493 59.9766 33.2856 59.9766 32.956V17.564C59.9766 17.2344 60.228 16.9707 60.5422 16.9707C60.8564 16.9707 61.1078 17.2344 61.1078 17.564V32.956C61.1078 33.2856 60.8564 33.5493 60.5422 33.5493Z" fill="#1C1C1A"/>
<path d="M57.9678 32.4278C57.8107 32.4278 57.685 32.3619 57.5908 32.263C57.3708 32.0323 57.3708 31.6697 57.5908 31.439L60.2303 28.6375C60.3245 28.5386 60.4817 28.4727 60.6388 28.4727C60.7959 28.4727 60.9216 28.5386 61.0473 28.6375L63.6868 31.406C63.9068 31.6368 63.9068 31.9993 63.6868 32.23C63.4668 32.4607 63.1212 32.4607 62.9012 32.23L60.6702 29.8899L58.4077 32.2959C58.2506 32.3948 58.1249 32.4278 57.9678 32.4278Z" fill="#1C1C1A"/>
<path d="M66.8247 29.7919C66.7304 29.7919 66.6361 29.7589 66.5419 29.7259L53.9099 21.8486C53.6585 21.6838 53.5642 21.3213 53.7213 21.0576C53.8785 20.7939 54.2241 20.6951 54.4755 20.8599L67.1075 28.7372C67.3589 28.9019 67.4531 29.2645 67.296 29.5282C67.2018 29.693 67.0132 29.7919 66.8247 29.7919Z" fill="#1C1C1A"/>
<path d="M65.0075 31.2063C64.6933 31.2063 64.4733 30.9427 64.4419 30.646L64.3477 27.9763C64.3477 27.7127 64.4734 27.4819 64.7247 27.416L67.1757 26.4602C67.4585 26.3613 67.7727 26.4932 67.8984 26.7898C67.9927 27.0864 67.867 27.416 67.5842 27.5479L65.5103 28.3718L65.6046 30.6131C65.5731 30.9097 65.3218 31.1734 65.0075 31.2063Z" fill="#1C1C1A"/>
<path d="M54.2278 30.1197C54.0393 30.1197 53.8508 30.0209 53.7565 29.8231C53.5994 29.5594 53.6937 29.1969 53.945 29.0321L66.577 21.1548C66.8284 20.99 67.1741 21.0889 67.3312 21.3525C67.4883 21.6162 67.394 21.9788 67.1427 22.1436L54.5107 30.0209C54.4164 30.0868 54.3221 30.1197 54.2278 30.1197Z" fill="#1C1C1A"/>
<path d="M56.7423 31.1744C56.4281 31.1744 56.1767 30.9107 56.1767 30.5811V28.3069L53.7886 27.0874C53.5058 26.9556 53.3801 26.593 53.5372 26.2964C53.6629 25.9998 54.0085 25.8679 54.2913 26.0327L56.9937 27.3841C57.1822 27.4829 57.3079 27.6807 57.3079 27.9114V30.5482C57.3079 30.9107 57.0566 31.1744 56.7423 31.1744Z" fill="#1C1C1A"/>
</g>
<path d="M40.8997 49.3379C40.8997 49.3379 39.957 52.3372 41.4025 53.2271C42.628 53.9522 43.005 53.8863 43.005 53.8863L44.1677 53.4908C44.1677 53.4908 46.87 54.3148 47.9698 54.2159C49.0696 54.15 50.0752 53.326 50.0752 53.326C50.0752 53.326 48.5669 50.8211 40.8997 49.3379Z" fill="#FCF5F5"/>
<path d="M37.1958 51.7408V25.3404C37.1958 23.198 38.8612 21.4512 40.9037 21.4512H40.9665C43.009 21.4512 44.6745 23.198 44.6745 25.3404V51.5101C47.911 52.9603 50.1735 56.3222 50.1735 60.2114C50.1735 65.419 46.1513 69.6707 41.1551 69.6707C36.1903 69.6707 32.1367 65.4519 32.1367 60.2114C32.1367 56.487 34.1792 53.2899 37.1958 51.7408Z" stroke="#1C1C1A" stroke-width="0.868884" stroke-miterlimit="10"/>
<path d="M37.1958 51.7408V25.3404C37.1958 23.198 38.8612 21.4512 40.9037 21.4512H40.9665C43.009 21.4512 44.6745 23.198 44.6745 25.3404V51.5101C47.911 52.9603 50.1735 56.3222 50.1735 60.2114C50.1735 65.419 46.1513 69.6707 41.1551 69.6707C36.1903 69.6707 32.1367 65.4519 32.1367 60.2114C32.1367 56.487 34.1792 53.2899 37.1958 51.7408Z" fill="#FCF5F5"/>
<path d="M41.1529 69.9996C35.9996 69.9996 31.8203 65.616 31.8203 60.2107C31.8203 56.5192 33.7685 53.2233 36.8794 51.5094V25.3067C36.8794 22.9995 38.6705 21.0879 40.9015 21.0879C43.164 21.0879 44.9865 22.9666 44.9865 25.3067V51.2787C48.3488 52.8607 50.4855 56.3544 50.4855 60.2107C50.4855 65.616 46.2748 69.9996 41.1529 69.9996ZM40.9329 21.78C39.0162 21.78 37.4764 23.3621 37.4764 25.3397V51.9379L37.2879 52.0368C34.2713 53.5858 32.4173 56.717 32.4173 60.2436C32.4173 65.2864 36.3138 69.3734 41.1215 69.3734C45.9292 69.3734 49.8256 65.2864 49.8256 60.2436C49.8256 56.5522 47.7517 53.2562 44.5152 51.839L44.3266 51.7401V25.3397C44.3266 23.3621 42.8183 21.78 40.9329 21.78Z" fill="#1C1C1A"/>
<path d="M41.0609 65.2233C43.6467 65.2233 45.7429 63.0541 45.7429 60.3782C45.7429 57.7024 43.6467 55.5332 41.0609 55.5332C38.4751 55.5332 36.3789 57.7024 36.3789 60.3782C36.3789 63.0541 38.4751 65.2233 41.0609 65.2233Z" fill="#4D96E5"/>
<path d="M40.9359 57.0851C40.3075 57.0851 39.8047 56.5578 39.8047 55.8986V44.4287C39.8047 43.7695 40.3075 43.2422 40.9359 43.2422C41.5644 43.2422 42.0671 43.7695 42.0671 44.4287V55.8986C42.0671 56.5578 41.5644 57.0851 40.9359 57.0851Z" fill="#4D96E5"/>
<defs>
<linearGradient id="paint0_linear_90_3" x1="57.2739" y1="0" x2="57.2739" y2="39.2432" gradientUnits="userSpaceOnUse">
<stop offset="0.290284" stop-color="#FFDB6E" stop-opacity="0.49"/>
<stop offset="1" stop-color="#FFF9E7" stop-opacity="0.17"/>
</linearGradient>
</defs>
</svg>
