<svg width="113" height="70" viewBox="0 0 113 70" fill="none" xmlns="http://www.w3.org/2000/svg">
<path d="M66.2886 -8.08154e-06L45.6066 -7.97411e-06L8.81682e-06 50.4263L112.956 51.97L66.2886 -8.08154e-06Z" fill="url(#paint0_linear_90_5)"/>
<path d="M53.3304 66.5497C52.0077 64.7889 51.0721 62.6264 50.1688 60.5257C49.2977 58.5177 48.4589 56.6024 47.362 55.1196C46.265 53.6677 44.6197 52.3084 42.8775 50.8874C41.0709 49.4046 39.1997 47.86 37.8769 46.13C37.1349 45.1414 36.6187 44.1838 36.3283 43.1952C34.683 37.7273 41.1031 33.2479 43.8454 31.3635C46.5877 29.4482 53.0078 24.9997 57.9439 28.2125C58.815 28.7995 59.6215 29.5409 60.3635 30.5294C61.6863 32.2903 62.6219 34.4527 63.5252 36.5534C64.3963 38.5614 65.2351 40.4767 66.332 41.9595C67.4289 43.4115 69.0743 44.7707 70.8164 46.1918C72.6231 47.6746 74.4943 49.2192 75.8171 50.9492C76.5591 51.9377 77.0753 52.8954 77.3656 53.8839C79.011 59.3518 72.5909 63.8312 69.8486 65.7156C67.1063 67.631 60.6862 72.0794 55.7501 68.8666C54.8467 68.2797 54.0725 67.5074 53.3304 66.5497Z" fill="#AC202B"/>
<path d="M76.0435 54.5027C74.5272 49.8071 68.1393 46.6252 65.2034 42.7328C62.2353 38.8403 61.0739 32.044 56.8798 29.202C52.589 26.2981 47.0399 29.9743 44.2331 31.9205C41.4263 33.8667 36.0708 37.79 37.6194 42.5783C39.1357 47.2739 45.5236 50.4558 48.4595 54.3482C51.4276 58.2406 52.589 65.0369 56.7831 67.879C61.0739 70.7829 66.623 67.1067 69.4298 65.1605C72.2366 63.2143 77.5921 59.291 76.0435 54.5027Z" fill="#E53E32"/>
<path d="M68.5568 60.4017C68.2987 60.5871 67.9116 60.5253 67.718 60.2782C67.5244 60.031 67.589 59.6603 67.8471 59.475C68.1052 59.2896 68.4923 59.3514 68.6859 59.5985C68.8795 59.8766 68.8472 60.2164 68.5568 60.4017Z" fill="#AC202B"/>
<path d="M56.1369 29.9138C55.9433 30.0374 55.6852 29.9756 55.5562 29.7903C55.4271 29.6049 55.4594 29.3578 55.6207 29.2342C55.8143 29.1106 56.0724 29.1724 56.2014 29.3578C56.3305 29.5431 56.2982 29.7903 56.1369 29.9138Z" fill="#AC202B"/>
<path d="M53.8164 31.4885C53.526 31.7048 53.0744 31.643 52.8485 31.3341C52.6227 31.0252 52.6872 30.6236 53.0099 30.4073C53.3325 30.1911 53.7519 30.2529 53.9777 30.5618C54.1713 30.8707 54.1068 31.2723 53.8164 31.4885Z" fill="#AC202B"/>
<path d="M66.9123 62.472C66.6542 62.6574 66.2671 62.5956 66.0735 62.3485C65.8799 62.1013 65.9444 61.7306 66.2025 61.5453C66.4606 61.3599 66.8478 61.4217 67.0413 61.6688C67.2349 61.9469 67.1704 62.2867 66.9123 62.472Z" fill="#AC202B"/>
<path d="M49.9767 31.363C49.8154 31.4866 49.5573 31.4249 49.396 31.2395C49.267 31.0541 49.2993 30.807 49.4606 30.6834C49.6219 30.5599 49.88 30.6216 50.0413 30.807C50.1703 30.9924 50.1381 31.2395 49.9767 31.363Z" fill="#AC202B"/>
<path d="M48.0714 35.5037C47.8134 35.689 47.4585 35.6272 47.2649 35.3801C47.0713 35.1329 47.1358 34.7622 47.3939 34.6078C47.652 34.4224 48.0069 34.4842 48.2005 34.7313C48.3618 34.9785 48.3295 35.3492 48.0714 35.5037Z" fill="#AC202B"/>
<path d="M44.1367 34.4817C43.9431 34.6052 43.6528 34.5743 43.4914 34.3581C43.3301 34.1418 43.3624 33.8638 43.5882 33.7402C43.7818 33.6167 44.0722 33.6476 44.2335 33.8638C44.3948 34.0801 44.3303 34.3581 44.1367 34.4817Z" fill="#AC202B"/>
<path d="M56.5549 31.1814C56.3936 31.305 56.1355 31.2432 55.9742 31.0578C55.8451 30.8725 55.8774 30.6254 56.0387 30.5018C56.2 30.3782 56.4581 30.44 56.6194 30.6254C56.7484 30.8107 56.7162 31.0578 56.5549 31.1814Z" fill="#AC202B"/>
<path d="M56.4609 32.5061C56.1706 32.7224 55.7189 32.6606 55.4931 32.3517C55.2672 32.0427 55.3318 31.6411 55.6544 31.4249C55.9447 31.2087 56.3964 31.2704 56.6222 31.5794C56.8158 31.8883 56.7513 32.2899 56.4609 32.5061Z" fill="#AC202B"/>
<path d="M50.9133 31.1162C50.6552 31.3016 50.2681 31.2398 50.0422 30.9926C49.8487 30.7146 49.9132 30.3439 50.1713 30.1586C50.4294 29.9732 50.8165 30.035 51.0424 30.2821C51.2359 30.5601 51.2037 30.9309 50.9133 31.1162Z" fill="#AC202B"/>
<path d="M51.7526 35.7804C51.6235 35.8731 51.43 35.8422 51.3009 35.6877C51.1719 35.5333 51.2041 35.3479 51.3332 35.2553C51.4622 35.1626 51.6558 35.1935 51.7848 35.3479C51.9139 35.5024 51.8816 35.6877 51.7526 35.7804Z" fill="#AC202B"/>
<path d="M48.0068 33.7428C47.7164 33.9591 47.297 33.8973 47.0712 33.5884C46.8454 33.3103 46.9099 32.9087 47.2325 32.6925C47.5229 32.4762 47.9423 32.538 48.1681 32.8469C48.3617 33.125 48.2972 33.5266 48.0068 33.7428Z" fill="#AC202B"/>
<path d="M48.9141 32.2601C48.6238 32.4455 48.2366 32.3837 48.0108 32.1057C47.785 31.8276 47.8495 31.457 48.1399 31.2407C48.4302 31.0554 48.8174 31.1171 49.0432 31.3952C49.269 31.6732 49.2045 32.0748 48.9141 32.2601Z" fill="#AC202B"/>
<path d="M46.3652 38.2231C46.0748 38.4084 45.6877 38.3466 45.4619 38.0686C45.2683 37.7906 45.3005 37.4199 45.5909 37.2036C45.8813 37.0183 46.2684 37.08 46.4942 37.3581C46.6878 37.6361 46.6233 38.0068 46.3652 38.2231Z" fill="#AC202B"/>
<path d="M55.4609 29.6975C55.1383 29.9138 54.7189 29.852 54.4931 29.5431C54.2672 29.2341 54.3318 28.8325 54.6544 28.6163C54.977 28.4001 55.3964 28.4618 55.6222 28.7708C55.8481 29.0488 55.7836 29.4813 55.4609 29.6975Z" fill="#AC202B"/>
<path d="M54.7501 29.1401C54.6211 29.2328 54.4275 29.171 54.3307 29.0474C54.2339 28.8929 54.2339 28.7076 54.363 28.6149C54.492 28.5223 54.6856 28.584 54.7824 28.7076C54.8792 28.8621 54.8469 29.0474 54.7501 29.1401Z" fill="#AC202B"/>
<path d="M57.8154 35.0397C57.525 35.2559 57.1056 35.1942 56.8798 34.8852C56.654 34.6072 56.7185 34.2056 57.0411 33.9893C57.3315 33.7731 57.7509 33.8349 57.9767 34.1438C58.2025 34.4527 58.1058 34.8234 57.8154 35.0397Z" fill="#AC202B"/>
<path d="M53.1377 36.153C52.9441 36.3075 52.6215 36.2457 52.4602 36.0295C52.2989 35.8132 52.3311 35.5352 52.557 35.3807C52.7505 35.2263 53.0732 35.2881 53.2345 35.5043C53.3635 35.7205 53.3313 35.9986 53.1377 36.153Z" fill="#AC202B"/>
<path d="M52.6194 35.9981C52.3613 36.1835 52.0387 36.1217 51.8451 35.8746C51.6515 35.6274 51.716 35.2876 51.9419 35.1332C52.2 34.9478 52.5226 35.0096 52.7161 35.2567C52.9097 35.473 52.8775 35.8128 52.6194 35.9981Z" fill="#AC202B"/>
<path d="M51.0393 36.6169C50.878 36.7405 50.6198 36.6788 50.4585 36.4934C50.3295 36.3081 50.3618 36.0609 50.5231 35.9373C50.6844 35.8138 50.9425 35.8756 51.1038 36.0609C51.2328 36.2463 51.2006 36.4934 51.0393 36.6169Z" fill="#AC202B"/>
<path d="M48.1682 37.7596C47.9746 37.8831 47.7165 37.8213 47.5874 37.636C47.4584 37.4506 47.4907 37.2035 47.652 37.0799C47.8455 36.9563 48.1036 37.0181 48.2327 37.2035C48.394 37.3888 48.3617 37.636 48.1682 37.7596Z" fill="#AC202B"/>
<path d="M57.2697 31.5502C57.0761 31.6738 56.8181 31.612 56.689 31.4266C56.56 31.2413 56.5922 30.9941 56.7535 30.8397C56.9471 30.7161 57.2052 30.7779 57.3342 30.9633C57.4956 31.1795 57.4633 31.4266 57.2697 31.5502Z" fill="#AC202B"/>
<path d="M55.0754 32.4448C54.8496 32.5993 54.4947 32.5375 54.3334 32.3213C54.1398 32.0741 54.2043 31.7652 54.4302 31.5798C54.656 31.3945 55.0109 31.4872 55.1722 31.7034C55.3658 31.9506 55.3012 32.2595 55.0754 32.4448Z" fill="#AC202B"/>
<path d="M56.1083 37.6354C55.818 37.8516 55.3986 37.7899 55.1728 37.4809C54.9469 37.2029 55.0115 36.8013 55.3341 36.5851C55.6244 36.3688 56.0438 36.4306 56.2697 36.7395C56.4955 37.0175 56.431 37.4191 56.1083 37.6354Z" fill="#AC202B"/>
<path d="M55.7511 37.4184C55.5897 37.5111 55.3639 37.4802 55.2671 37.3257C55.1381 37.1712 55.1703 36.955 55.3317 36.8314C55.493 36.7388 55.7188 36.7696 55.8156 36.9241C55.9124 37.0785 55.8801 37.2948 55.7511 37.4184Z" fill="#AC202B"/>
<path d="M52.7174 34.3934C52.5884 34.486 52.3625 34.4551 52.2657 34.3007C52.1367 34.1462 52.169 33.93 52.298 33.8373C52.4271 33.7446 52.6529 33.7755 52.7497 33.93C52.8465 34.0844 52.8787 34.3007 52.7174 34.3934Z" fill="#AC202B"/>
<path d="M52.9757 38.6838C52.8466 38.7765 52.6853 38.7147 52.5885 38.5911C52.4917 38.4675 52.4917 38.2822 52.6208 38.2204C52.7498 38.1277 52.9111 38.1895 53.0079 38.3131C53.1047 38.4366 53.1047 38.622 52.9757 38.6838Z" fill="#AC202B"/>
<path d="M45.8439 38.0056C45.6504 38.1292 45.3923 38.0674 45.2632 37.8821C45.1342 37.6967 45.1664 37.4496 45.3277 37.326C45.4891 37.2024 45.7794 37.2642 45.9085 37.4496C46.0698 37.6349 46.0375 37.882 45.8439 38.0056Z" fill="#AC202B"/>
<path d="M59.3312 33.8966C59.1699 34.0202 58.9118 33.9584 58.7828 33.773C58.6537 33.5877 58.686 33.3406 58.8473 33.2479C59.0086 33.1243 59.2667 33.1861 59.3957 33.3714C59.5248 33.5259 59.4925 33.773 59.3312 33.8966Z" fill="#AC202B"/>
<path d="M58.8486 35.3171C58.6228 35.4715 58.3324 35.4098 58.1711 35.1935C58.0098 34.9773 58.0421 34.6684 58.2679 34.5448C58.4937 34.3903 58.7841 34.4521 58.9454 34.6684C59.1067 34.8846 59.0745 35.1626 58.8486 35.3171Z" fill="#AC202B"/>
<path d="M55.5244 34.5769C55.2986 34.7313 55.0082 34.6695 54.8469 34.4533C54.6856 34.237 54.7179 33.9281 54.9437 33.8045C55.1695 33.6501 55.4599 33.7119 55.6212 33.9281C55.7825 34.1135 55.7502 34.4224 55.5244 34.5769Z" fill="#AC202B"/>
<path d="M58.8146 39.5814C58.5565 39.7668 58.1694 39.705 57.9758 39.4578C57.7823 39.1798 57.8468 38.84 58.1049 38.6547C58.363 38.4693 58.7501 38.5311 58.9437 38.7782C59.1373 39.0253 59.105 39.3961 58.8146 39.5814Z" fill="#AC202B"/>
<path d="M56.5881 41.2513C56.33 41.4367 55.9428 41.3749 55.7493 41.1278C55.5557 40.8498 55.6202 40.5099 55.8783 40.3246C56.1364 40.1392 56.5236 40.201 56.7171 40.4481C56.9107 40.6953 56.8462 41.0351 56.5881 41.2513Z" fill="#AC202B"/>
<path d="M54.4923 36.8006C54.3632 36.8933 54.2019 36.8315 54.0729 36.708C53.9761 36.5844 53.9761 36.399 54.1052 36.3063C54.2342 36.2137 54.3955 36.2755 54.5246 36.399C54.6214 36.5535 54.6213 36.7389 54.4923 36.8006Z" fill="#AC202B"/>
<path d="M53.8458 40.3227C53.6845 40.4153 53.4587 40.3845 53.3296 40.23C53.2006 40.0755 53.2328 39.8284 53.3942 39.7357C53.5555 39.6431 53.7813 39.6739 53.9103 39.8284C54.0394 39.9828 54.0071 40.1991 53.8458 40.3227Z" fill="#AC202B"/>
<path d="M53.0402 43.4118C52.7821 43.5972 52.4272 43.5354 52.2336 43.2883C52.0401 43.0412 52.1046 42.7013 52.3627 42.516C52.6208 42.3306 52.9757 42.3924 53.1692 42.6395C53.3306 42.9176 53.2983 43.2574 53.0402 43.4118Z" fill="#AC202B"/>
<path d="M67.2983 56.4172C67.1047 56.5408 66.8144 56.5099 66.6853 56.2936C66.524 56.1083 66.5563 55.8302 66.7498 55.6758C66.9434 55.5522 67.2338 55.5831 67.3628 55.7994C67.5241 56.0156 67.4919 56.2936 67.2983 56.4172Z" fill="#AC202B"/>
<path d="M59.9747 35.6253C59.8134 35.7489 59.5876 35.6871 59.4585 35.5327C59.3295 35.3782 59.3618 35.1311 59.5231 35.0384C59.6844 34.9148 59.9102 34.9766 60.0392 35.1311C60.136 35.2855 60.1038 35.5018 59.9747 35.6253Z" fill="#AC202B"/>
<path d="M58.1381 37.2926C57.9446 37.4161 57.6865 37.3852 57.5252 37.169C57.3638 36.9836 57.3961 36.7056 57.5897 36.582C57.7833 36.4585 58.0413 36.4894 58.2027 36.7056C58.364 36.891 58.3317 37.169 58.1381 37.2926Z" fill="#AC202B"/>
<path d="M56.2677 38.5317C56.1064 38.6553 55.8806 38.5935 55.7515 38.4082C55.6225 38.2228 55.6547 38.0066 55.816 37.9139C55.9773 37.7903 56.2032 37.8521 56.3322 38.0375C56.4613 38.1919 56.429 38.4082 56.2677 38.5317Z" fill="#AC202B"/>
<path d="M58.2003 42.7009C57.9423 42.8863 57.5874 42.8245 57.3938 42.5773C57.2002 42.3302 57.2648 41.9595 57.5229 41.805C57.781 41.6197 58.1358 41.6815 58.3294 41.9286C58.523 42.1757 58.4584 42.5156 58.2003 42.7009Z" fill="#AC202B"/>
<path d="M50.7472 39.1169C50.4891 39.3023 50.1342 39.2405 49.9407 38.9934C49.7471 38.7462 49.8116 38.3755 50.0697 38.2211C50.3278 38.0357 50.6827 38.0975 50.8763 38.3446C51.0699 38.5609 51.0053 38.9316 50.7472 39.1169Z" fill="#AC202B"/>
<path d="M53.3281 44.553C53.0055 44.7692 52.5861 44.7075 52.3603 44.3985C52.1344 44.0896 52.199 43.688 52.5216 43.4718C52.8442 43.2555 53.2636 43.3173 53.4894 43.6262C53.7153 43.9352 53.6507 44.3368 53.3281 44.553Z" fill="#AC202B"/>
<path d="M49.5898 41.8362C49.2672 42.0524 48.8478 41.9907 48.622 41.6817C48.3961 41.3728 48.4607 40.9712 48.7833 40.755C49.1059 40.5387 49.5253 40.6005 49.7512 40.9094C49.9447 41.2184 49.8802 41.62 49.5898 41.8362Z" fill="#AC202B"/>
<path d="M51.3633 39.7659C51.0407 39.9821 50.6213 39.9203 50.3954 39.6114C50.1696 39.3025 50.2341 38.9009 50.5567 38.6847C50.8793 38.4684 51.2988 38.5302 51.5246 38.8391C51.7504 39.148 51.6859 39.5496 51.3633 39.7659Z" fill="#AC202B"/>
<path d="M56.5586 40.8167C56.236 41.0329 55.8166 40.9711 55.5907 40.6622C55.3649 40.3533 55.4294 39.9517 55.752 39.7354C56.0747 39.5192 56.4941 39.581 56.7199 39.8899C56.9457 40.1679 56.8812 40.6004 56.5586 40.8167Z" fill="#AC202B"/>
<path d="M68.333 58.1472C68.1394 58.3016 67.8168 58.2398 67.6555 58.0236C67.4942 57.8073 67.5265 57.5293 67.7523 57.3749C67.9459 57.2204 68.2685 57.2822 68.4298 57.4984C68.5911 57.7147 68.5588 58.0236 68.333 58.1472Z" fill="#AC202B"/>
<path d="M58.8155 37.6053C58.6865 37.698 58.5251 37.6362 58.4284 37.5126C58.3316 37.389 58.3316 37.2037 58.4606 37.111C58.5897 37.0184 58.751 37.0801 58.8478 37.2037C58.9445 37.3273 58.9123 37.5126 58.8155 37.6053Z" fill="#AC202B"/>
<path d="M62.5605 40.9398C62.2701 41.1252 61.883 41.0634 61.6572 40.7854C61.4636 40.5073 61.4959 40.1366 61.7862 39.9204C62.0766 39.7351 62.4637 39.7968 62.6896 40.0749C62.8831 40.3529 62.8186 40.7545 62.5605 40.9398Z" fill="#AC202B"/>
<path d="M59.5226 44.4919C59.3613 44.6155 59.1032 44.5538 58.9742 44.3684C58.8451 44.1831 58.8774 43.9359 59.0387 43.8123C59.2 43.6888 59.4581 43.7506 59.5871 43.9359C59.7162 44.1213 59.6839 44.3684 59.5226 44.4919Z" fill="#AC202B"/>
<path d="M54.8803 43.7183C54.6867 43.8419 54.4287 43.811 54.2674 43.5948C54.106 43.4094 54.1383 43.1314 54.3319 43.0078C54.5254 42.8842 54.7835 42.9151 54.9448 43.1314C55.1062 43.3167 55.0739 43.5947 54.8803 43.7183Z" fill="#AC202B"/>
<path d="M55.3647 41.8043C55.1711 41.9279 54.913 41.897 54.7517 41.6807C54.5904 41.4954 54.6227 41.2173 54.8162 41.0938C55.0098 40.9702 55.2679 41.0011 55.4292 41.2173C55.5905 41.4027 55.5583 41.6498 55.3647 41.8043Z" fill="#AC202B"/>
<path d="M55.4905 43.4122C55.2324 43.5975 54.9098 43.5358 54.7162 43.2886C54.5226 43.0415 54.5871 42.7017 54.813 42.5472C55.0711 42.3619 55.3937 42.4237 55.5873 42.6708C55.7808 42.9179 55.7486 43.2268 55.4905 43.4122Z" fill="#AC202B"/>
<path d="M51.1691 42.916C50.9433 43.0704 50.5884 43.0086 50.4271 42.7924C50.2335 42.5453 50.2981 42.2364 50.5239 42.0819C50.7497 41.9274 51.1046 41.9892 51.2659 42.2055C51.4595 42.4217 51.395 42.7615 51.1691 42.916Z" fill="#AC202B"/>
<path d="M61.5895 38.1297C61.4282 38.2223 61.2346 38.1915 61.1056 38.037C60.9765 37.8825 61.0088 37.6663 61.1379 37.5736C61.2992 37.4809 61.4927 37.5118 61.6218 37.6663C61.7508 37.8207 61.7186 38.037 61.5895 38.1297Z" fill="#AC202B"/>
<path d="M63.334 41.6505C63.2372 41.7123 63.0759 41.6814 62.9792 41.5578C62.8824 41.4343 62.8824 41.2798 63.0114 41.1871C63.1082 41.1254 63.2695 41.1563 63.3663 41.2798C63.4308 41.4343 63.4308 41.5887 63.334 41.6505Z" fill="#AC202B"/>
<path d="M61.3332 39.9197C61.0751 40.105 60.7202 40.0432 60.5266 39.7961C60.333 39.549 60.3976 39.2091 60.6557 39.0238C60.9138 38.8384 61.2686 38.9002 61.4622 39.1474C61.6235 39.4254 61.559 39.7652 61.3332 39.9197Z" fill="#AC202B"/>
<path d="M60.1694 43.7514C59.9758 43.875 59.7177 43.8132 59.5564 43.6278C59.3951 43.4425 59.4274 43.1644 59.6209 43.0408C59.8145 42.9173 60.0726 42.9791 60.2339 43.1644C60.3952 43.3807 60.363 43.6278 60.1694 43.7514Z" fill="#AC202B"/>
<path d="M60.0722 46.0688C59.7819 46.2541 59.3947 46.1923 59.1689 45.9143C58.9753 45.6363 59.0076 45.2656 59.2979 45.0493C59.5883 44.864 59.9754 44.9257 60.2013 45.2038C60.4271 45.4818 60.3626 45.8525 60.0722 46.0688Z" fill="#AC202B"/>
<path d="M55.4258 45.2659C55.1354 45.4821 54.6838 45.4203 54.4579 45.1114C54.2321 44.8025 54.2966 44.4009 54.6192 44.1847C54.9418 43.9684 55.3613 44.0302 55.5871 44.3391C55.7807 44.648 55.7161 45.0496 55.4258 45.2659Z" fill="#AC202B"/>
<path d="M50.879 46.3455C50.75 46.4382 50.5887 46.3764 50.4596 46.2529C50.3628 46.1293 50.3628 45.9439 50.4919 45.8513C50.6209 45.7586 50.7822 45.8204 50.9113 45.944C51.0081 46.0675 51.0081 46.2528 50.879 46.3455Z" fill="#AC202B"/>
<path d="M71.1076 63.3989C70.8495 63.5533 70.5269 63.5224 70.3334 63.2753C70.1398 63.0281 70.2043 62.6883 70.4302 62.5339C70.6882 62.3794 71.0109 62.4103 71.2044 62.6574C71.398 62.9046 71.3657 63.2444 71.1076 63.3989Z" fill="#AC202B"/>
<path d="M64.7491 45.8203C64.5233 45.9747 64.2006 45.9129 64.0071 45.6967C63.8458 45.4805 63.878 45.1407 64.1039 44.9862C64.3297 44.8317 64.6523 44.8935 64.8459 45.1097C65.0395 45.3569 64.9749 45.6658 64.7491 45.8203Z" fill="#AC202B"/>
<path d="M61.8146 42.6388C61.6533 42.7624 61.4274 42.7006 61.2984 42.5153C61.1693 42.3299 61.2016 42.1136 61.3629 41.9901C61.5242 41.8665 61.75 41.9283 61.8791 42.1136C61.9759 42.299 61.9759 42.5152 61.8146 42.6388Z" fill="#AC202B"/>
<path d="M61.4913 47.5197C61.3945 47.5814 61.2009 47.5505 61.1041 47.427C61.0074 47.3034 61.0074 47.1181 61.1364 47.0563C61.2332 46.9945 61.4268 47.0254 61.5236 47.149C61.6203 47.2725 61.5881 47.4579 61.4913 47.5197Z" fill="#AC202B"/>
<path d="M56.233 45.4812C56.104 45.5739 55.8782 45.543 55.7814 45.3886C55.6523 45.2341 55.6846 45.0178 55.8136 44.9252C55.9427 44.8325 56.1685 44.8634 56.2653 45.0179C56.3943 45.1723 56.3944 45.3886 56.233 45.4812Z" fill="#AC202B"/>
<path d="M45.7174 35.6277C45.5884 35.7204 45.3625 35.6895 45.2657 35.535C45.1367 35.3806 45.169 35.1643 45.298 35.0717C45.4271 34.979 45.6529 35.0099 45.7497 35.1643C45.8787 35.3188 45.8465 35.5351 45.7174 35.6277Z" fill="#AC202B"/>
<path d="M58.5596 46.8737C58.3337 47.0282 58.0434 46.9664 57.8821 46.7502C57.7208 46.5339 57.753 46.2559 57.9789 46.1014C58.2047 45.947 58.495 46.0088 58.6564 46.225C58.8177 46.4412 58.7854 46.7502 58.5596 46.8737Z" fill="#AC202B"/>
<path d="M55.9767 52.2772C55.8476 52.3699 55.6863 52.3081 55.5573 52.1845C55.4605 52.0609 55.4605 51.8756 55.5895 51.7829C55.7186 51.6902 55.8799 51.752 56.0089 51.8756C56.1057 52.03 56.1057 52.2154 55.9767 52.2772Z" fill="#AC202B"/>
<path d="M63.3663 44.2755C63.2372 44.3682 63.0759 44.3064 62.9792 44.1828C62.8824 44.0593 62.8824 43.8739 63.0114 43.8121C63.1405 43.7504 63.3018 43.7813 63.3986 43.9048C63.4953 44.0284 63.4953 44.1828 63.3663 44.2755Z" fill="#AC202B"/>
<path d="M66.6876 48.2015C66.3972 48.3869 65.9778 48.3251 65.7842 48.0471C65.5584 47.7691 65.6229 47.3675 65.9133 47.1821C66.2036 46.9968 66.6231 47.0586 66.8166 47.3366C67.0425 47.6146 66.9779 48.0162 66.6876 48.2015Z" fill="#AC202B"/>
<path d="M66.0089 49.2185C65.7508 49.4038 65.396 49.3421 65.2024 49.0949C65.0088 48.8478 65.0734 48.4771 65.3314 48.3226C65.5895 48.1373 65.9444 48.1991 66.138 48.4462C66.3316 48.6933 66.267 49.0331 66.0089 49.2185Z" fill="#AC202B"/>
<path d="M59.685 45.5111C59.4914 45.6347 59.2333 45.5729 59.072 45.3876C58.9107 45.2022 58.943 44.9242 59.1366 44.8006C59.3301 44.677 59.5882 44.7388 59.7495 44.9242C59.8786 45.1095 59.8463 45.3876 59.685 45.5111Z" fill="#AC202B"/>
<path d="M62.3984 51.5061C62.0758 51.7224 61.6564 51.6606 61.4306 51.3517C61.2047 51.0427 61.2693 50.6411 61.5919 50.4249C61.9145 50.2087 62.3339 50.2704 62.5597 50.5794C62.7856 50.8574 62.7211 51.2899 62.3984 51.5061Z" fill="#AC202B"/>
<path d="M56.3346 49.0343C56.2055 49.127 56.012 49.0961 55.8829 48.9417C55.7539 48.7872 55.7861 48.6018 55.9152 48.5092C56.0442 48.4165 56.2378 48.4474 56.3669 48.6018C56.4959 48.7563 56.4636 48.9417 56.3346 49.0343Z" fill="#AC202B"/>
<path d="M58.0391 54.1917C57.7164 54.4079 57.297 54.3461 57.0712 54.0372C56.8454 53.7283 56.9099 53.3267 57.2325 53.1104C57.5551 52.8942 57.9745 52.956 58.2004 53.2649C58.4262 53.5429 58.3294 53.9754 58.0391 54.1917Z" fill="#AC202B"/>
<path d="M68.1418 51.9372C67.8837 52.1226 67.5288 52.0608 67.3352 51.8137C67.1416 51.5665 67.2062 51.2267 67.4642 51.0414C67.7223 50.856 68.0772 50.9178 68.2708 51.1649C68.4644 51.4121 68.3999 51.7828 68.1418 51.9372Z" fill="#AC202B"/>
<path d="M65.1729 46.348C65.0116 46.4407 64.7858 46.4099 64.689 46.2554C64.56 46.1009 64.5922 45.8847 64.7535 45.7611C64.9148 45.6684 65.1407 45.6993 65.2375 45.8538C65.3342 46.0391 65.3342 46.2554 65.1729 46.348Z" fill="#AC202B"/>
<path d="M67.2374 48.7244C67.0761 48.848 66.8181 48.7862 66.689 48.6008C66.56 48.4155 66.5922 48.1683 66.7535 48.0448C66.9148 47.9212 67.1729 47.983 67.302 48.1683C67.4633 48.3846 67.431 48.6008 67.2374 48.7244Z" fill="#AC202B"/>
<path d="M65.2678 52.6196C65.042 52.774 64.6871 52.7431 64.4935 52.496C64.2999 52.2488 64.3645 51.9399 64.5903 51.7546C64.8162 51.6001 65.171 51.631 65.3646 51.8781C65.5582 52.1253 65.5259 52.4342 65.2678 52.6196Z" fill="#AC202B"/>
<path d="M64.9767 52.2459C64.7832 52.3695 64.5251 52.3077 64.396 52.1223C64.267 51.937 64.2993 51.6898 64.4606 51.5662C64.6541 51.4427 64.9122 51.5045 65.0413 51.6898C65.2026 51.8752 65.1703 52.1223 64.9767 52.2459Z" fill="#AC202B"/>
<path d="M59.4595 50.1477C59.2659 50.2712 58.9755 50.2403 58.8142 50.0241C58.6529 49.8079 58.6852 49.5298 58.8787 49.4063C59.0723 49.2827 59.3627 49.3136 59.524 49.5298C59.6853 49.7461 59.653 50.0241 59.4595 50.1477Z" fill="#AC202B"/>
<path d="M60.2668 52.5251C60.0087 52.7105 59.6538 52.6487 59.4602 52.4016C59.2666 52.1544 59.3312 51.8146 59.5893 51.6293C59.8474 51.4439 60.2022 51.5057 60.3958 51.7528C60.5894 51.9999 60.5249 52.3398 60.2668 52.5251Z" fill="#AC202B"/>
<path d="M71.526 54.8429C71.397 54.9356 71.2034 54.9047 71.0743 54.7502C70.9453 54.5958 70.9775 54.4104 71.1066 54.3178C71.2356 54.2251 71.4292 54.256 71.5583 54.4104C71.6873 54.5649 71.6551 54.7502 71.526 54.8429Z" fill="#AC202B"/>
<path d="M65.4913 47.2441C65.2654 47.3986 64.9428 47.3368 64.7493 47.1205C64.5879 46.9043 64.6202 46.5645 64.846 46.41C65.0719 46.2556 65.3945 46.3173 65.5881 46.5336C65.7494 46.7807 65.7171 47.0896 65.4913 47.2441Z" fill="#AC202B"/>
<path d="M61.9444 48.5097C61.7186 48.6642 61.396 48.6024 61.2024 48.3862C61.0411 48.1699 61.0733 47.8301 61.2992 47.6756C61.525 47.5212 61.8476 47.583 62.0412 47.7992C62.2025 48.0464 62.1702 48.3553 61.9444 48.5097Z" fill="#AC202B"/>
<path d="M66.9762 46.2234C66.8472 46.3161 66.6214 46.2852 66.4923 46.1307C66.3633 45.9763 66.3955 45.76 66.5246 45.6674C66.6536 45.5747 66.8795 45.6056 67.0085 45.7601C67.1376 45.9145 67.1053 46.1308 66.9762 46.2234Z" fill="#AC202B"/>
<path d="M66.0772 52.4316C65.8514 52.5861 65.5288 52.5243 65.3352 52.3081C65.1739 52.0918 65.2061 51.752 65.432 51.5975C65.6578 51.4431 65.9804 51.5048 66.174 51.7211C66.3676 51.9373 66.3031 52.2463 66.0772 52.4316Z" fill="#AC202B"/>
<path d="M61.4288 51.6604C61.2997 51.753 61.1384 51.6912 61.0417 51.5677C60.9449 51.4441 60.9449 51.2588 61.0739 51.197C61.203 51.1043 61.3643 51.1661 61.4611 51.2896C61.5578 51.4132 61.5578 51.5677 61.4288 51.6604Z" fill="#AC202B"/>
<path d="M61.5558 54.4718C61.4268 54.5645 61.2332 54.5336 61.1041 54.3791C61.0074 54.2247 61.0074 54.0393 61.1364 53.9467C61.2655 53.854 61.459 53.8849 61.5881 54.0393C61.6849 54.1938 61.6849 54.3791 61.5558 54.4718Z" fill="#AC202B"/>
<path d="M60.6225 54.1929C60.4289 54.3165 60.1386 54.2856 60.0095 54.0694C59.8482 53.884 59.8805 53.606 60.0741 53.4824C60.2676 53.3589 60.558 53.3897 60.687 53.606C60.8483 53.7913 60.8161 54.0694 60.6225 54.1929Z" fill="#AC202B"/>
<path d="M72.2051 58.4866C71.9793 58.6411 71.6889 58.5793 71.4954 58.3631C71.334 58.1468 71.3663 57.8379 71.5921 57.6835C71.818 57.529 72.1083 57.5908 72.3019 57.807C72.4955 58.0233 72.431 58.3322 72.2051 58.4866Z" fill="#AC202B"/>
<path d="M73.0781 51.8762C72.8845 51.9998 72.5942 51.9689 72.4329 51.7526C72.2715 51.5364 72.3038 51.2583 72.5296 51.1348C72.7232 51.0112 73.0136 51.0421 73.1749 51.2583C73.3362 51.4437 73.3039 51.7217 73.0781 51.8762Z" fill="#AC202B"/>
<path d="M68.3976 49.6837C68.2363 49.8073 67.9782 49.7455 67.8492 49.5601C67.7201 49.3748 67.7524 49.1586 67.9137 49.035C68.075 48.9114 68.3331 48.9732 68.4621 49.1586C68.5912 49.3439 68.5589 49.5601 68.3976 49.6837Z" fill="#AC202B"/>
<path d="M68.333 55.4281C68.1072 55.5825 67.8168 55.5207 67.6555 55.3045C67.4942 55.0882 67.5265 54.7793 67.7523 54.6249C67.9781 54.4704 68.2685 54.5322 68.4298 54.7484C68.5911 54.9647 68.5588 55.2736 68.333 55.4281Z" fill="#AC202B"/>
<path d="M61.2687 64.3591C61.1074 64.4827 60.8493 64.4209 60.7203 64.2356C60.5912 64.0502 60.6235 63.8031 60.7848 63.6795C60.9461 63.556 61.2042 63.6177 61.3332 63.8031C61.4623 63.9884 61.43 64.2356 61.2687 64.3591Z" fill="#AC202B"/>
<path d="M41.6833 36.491C41.5542 36.5837 41.3284 36.5528 41.1993 36.3983C41.0703 36.2439 41.1025 36.0276 41.2316 35.9349C41.3606 35.8423 41.5865 35.8732 41.7155 36.0276C41.8446 36.1821 41.8123 36.3983 41.6833 36.491Z" fill="#AC202B"/>
<path d="M39.9434 37.5726C39.7176 37.7271 39.3949 37.6653 39.2336 37.449C39.0723 37.2328 39.1046 36.9239 39.3304 36.7694C39.5562 36.6149 39.8789 36.6767 40.0402 36.893C40.2338 37.1092 40.1692 37.4182 39.9434 37.5726Z" fill="#AC202B"/>
<path d="M39.1708 40.5377C38.8805 40.754 38.4611 40.6922 38.2353 40.3833C38.0094 40.1052 38.074 39.7036 38.3966 39.4874C38.6869 39.2712 39.1063 39.3329 39.3322 39.6419C39.5257 39.9508 39.4612 40.3524 39.1708 40.5377Z" fill="#AC202B"/>
<path d="M44.751 40.0749C44.5574 40.2294 44.2348 40.1676 44.0735 39.9513C43.9122 39.7351 43.9444 39.4571 44.1703 39.3026C44.3638 39.1481 44.6865 39.2099 44.8478 39.4262C45.0091 39.6424 44.9768 39.9513 44.751 40.0749Z" fill="#AC202B"/>
<path d="M41.3927 36.8305C41.2314 36.9232 41.0056 36.8923 40.8765 36.7378C40.7475 36.5833 40.7797 36.3362 40.941 36.2435C41.1023 36.1509 41.3282 36.1818 41.4572 36.3362C41.5863 36.5216 41.554 36.7378 41.3927 36.8305Z" fill="#AC202B"/>
<path d="M40.9083 39.4904C40.747 39.6139 40.5212 39.5521 40.3921 39.3668C40.2631 39.1814 40.2953 38.9652 40.4566 38.8416C40.618 38.7181 40.8438 38.7799 40.9728 38.9652C41.1019 39.1506 41.0696 39.3668 40.9083 39.4904Z" fill="#AC202B"/>
<path d="M38.8457 42.4847C38.6199 42.6392 38.2973 42.5774 38.136 42.3612C37.9747 42.1449 38.0069 41.836 38.2328 41.6815C38.4586 41.527 38.7812 41.5888 38.9425 41.8051C39.1038 42.0213 39.0716 42.3302 38.8457 42.4847Z" fill="#AC202B"/>
<path d="M45.3616 37.5707C45.1035 37.7252 44.7808 37.6943 44.5873 37.4472C44.3937 37.2 44.4582 36.8602 44.6841 36.7057C44.9422 36.5513 45.2648 36.5822 45.4583 36.8293C45.6519 37.0765 45.5874 37.4163 45.3616 37.5707Z" fill="#AC202B"/>
<path d="M44.9445 39.4572C44.7832 39.5807 44.5251 39.5189 44.396 39.3336C44.267 39.1482 44.2993 38.932 44.4606 38.8084C44.6219 38.6849 44.88 38.7466 45.009 38.932C45.1381 39.1173 45.1058 39.3336 44.9445 39.4572Z" fill="#AC202B"/>
<path d="M42.9425 39.7341C42.6844 39.9195 42.3296 39.8577 42.136 39.6105C41.9424 39.3634 42.0069 39.0236 42.265 38.8382C42.5231 38.6529 42.878 38.7147 43.0716 38.9618C43.2329 39.209 43.1684 39.5488 42.9425 39.7341Z" fill="#AC202B"/>
<path d="M41.17 41.9277C40.9441 42.0822 40.6215 42.0204 40.4602 41.8041C40.2989 41.5879 40.3312 41.279 40.557 41.0936C40.7828 40.9392 41.1054 41.0009 41.2667 41.2172C41.4603 41.4334 41.3958 41.7424 41.17 41.9277Z" fill="#AC202B"/>
<path d="M47.5253 43.5668C47.235 43.7521 46.8478 43.6903 46.622 43.4123C46.4284 43.1343 46.4607 42.7636 46.7511 42.5474C47.0414 42.362 47.4286 42.4238 47.6544 42.7018C47.8802 43.0107 47.8157 43.3814 47.5253 43.5668Z" fill="#AC202B"/>
<path d="M48.5561 43.0406C48.3625 43.1642 48.1044 43.1333 47.9431 42.917C47.7818 42.7317 47.8141 42.4537 48.0077 42.3301C48.2012 42.2065 48.4593 42.2374 48.6206 42.4537C48.7819 42.6699 48.7497 42.9171 48.5561 43.0406Z" fill="#AC202B"/>
<path d="M44.6823 46.7488C44.5532 46.8414 44.3274 46.8105 44.2306 46.6561C44.1015 46.5016 44.1338 46.3163 44.2629 46.1927C44.3919 46.0691 44.6177 46.1309 44.7145 46.2854C44.8436 46.4398 44.8113 46.6561 44.6823 46.7488Z" fill="#AC202B"/>
<path d="M55.944 51.4109C55.8149 51.5036 55.5891 51.4727 55.4923 51.3183C55.3633 51.1638 55.3955 50.9784 55.5246 50.8549C55.6536 50.7622 55.8795 50.7931 55.9762 50.9475C56.1053 51.1329 56.1053 51.3182 55.944 51.4109Z" fill="#AC202B"/>
<path d="M43.5879 46.0371C43.3621 46.1915 43.0395 46.1298 42.8782 45.9135C42.7168 45.6973 42.7491 45.3574 42.975 45.203C43.2008 45.0485 43.5234 45.1103 43.6847 45.3266C43.846 45.5428 43.8138 45.8826 43.5879 46.0371Z" fill="#AC202B"/>
<path d="M46.9727 41.0022C46.65 41.2185 46.2306 41.1567 46.0048 40.8478C45.779 40.5388 45.8435 40.1372 46.1661 39.921C46.4887 39.7047 46.9081 39.7665 47.134 40.0755C47.3598 40.3844 47.2953 40.786 46.9727 41.0022Z" fill="#AC202B"/>
<path d="M47.4592 42.0209C47.2011 42.2062 46.8139 42.1445 46.6204 41.8973C46.4268 41.6502 46.4913 41.2795 46.7494 41.0941C47.0075 40.9087 47.3947 40.9705 47.5882 41.2177C47.7818 41.4957 47.7495 41.8355 47.4592 42.0209Z" fill="#AC202B"/>
<path d="M57.6873 67.1698C57.8809 67.0462 58.139 67.108 58.2681 67.2933C58.3971 67.4787 58.3648 67.7258 58.2035 67.8494C58.01 67.973 57.7519 67.9112 57.6228 67.7258C57.4615 67.5405 57.4938 67.2933 57.6873 67.1698Z" fill="#AC202B"/>
<path d="M60.0087 65.5929C60.3314 65.3766 60.7508 65.4384 60.9766 65.7473C61.2024 66.0562 61.1379 66.4578 60.8153 66.6741C60.4927 66.8903 60.0733 66.8286 59.8474 66.5196C59.6216 66.2107 59.7184 65.8091 60.0087 65.5929Z" fill="#AC202B"/>
<path d="M63.8475 65.7147C64.0088 65.5911 64.2669 65.6529 64.4282 65.8383C64.5573 66.0236 64.525 66.2707 64.3637 66.3943C64.2024 66.5179 63.9443 66.4561 63.783 66.2707C63.6217 66.0854 63.6539 65.8382 63.8475 65.7147Z" fill="#AC202B"/>
<path d="M65.7533 61.5765C66.0114 61.3912 66.3663 61.453 66.5599 61.7001C66.7534 61.9472 66.6889 62.3179 66.4308 62.4724C66.1727 62.6578 65.8178 62.596 65.6243 62.3488C65.4307 62.1017 65.4952 61.731 65.7533 61.5765Z" fill="#AC202B"/>
<path d="M69.6547 62.5957C69.8483 62.4722 70.1386 62.503 70.2999 62.7193C70.4612 62.9355 70.429 63.2135 70.2031 63.3371C69.9773 63.4607 69.7192 63.4298 69.5579 63.2136C69.4289 62.9973 69.4611 62.7193 69.6547 62.5957Z" fill="#AC202B"/>
<path d="M57.2379 65.9022C57.3992 65.7786 57.6573 65.8404 57.8186 66.0258C57.9477 66.2111 57.9154 66.4582 57.7541 66.5818C57.5928 66.7054 57.3347 66.6436 57.1734 66.4583C57.0443 66.2729 57.0766 66.0257 57.2379 65.9022Z" fill="#AC202B"/>
<path d="M57.3614 64.5733C57.6518 64.3571 58.1034 64.4189 58.3293 64.7278C58.5551 65.0367 58.4906 65.4383 58.168 65.6546C57.8776 65.8708 57.4259 65.809 57.2001 65.5001C56.9743 65.1912 57.0388 64.7896 57.3614 64.5733Z" fill="#AC202B"/>
<path d="M62.8822 65.9632C63.1403 65.7779 63.5275 65.8397 63.7533 66.0868C63.9469 66.3648 63.8824 66.7356 63.6243 66.9209C63.3662 67.1063 62.979 67.0445 62.7532 66.7974C62.5596 66.5193 62.6241 66.1486 62.8822 65.9632Z" fill="#AC202B"/>
<path d="M62.0427 61.267C62.1717 61.1743 62.3653 61.2052 62.4943 61.3597C62.5911 61.5141 62.5911 61.6994 62.4621 61.7921C62.333 61.8848 62.1394 61.8539 62.0104 61.6995C61.9136 61.5759 61.9136 61.3596 62.0427 61.267Z" fill="#AC202B"/>
<path d="M65.7837 63.337C66.074 63.1208 66.4934 63.1825 66.7193 63.4915C66.9451 63.7695 66.8806 64.1711 66.558 64.3873C66.2676 64.6036 65.8482 64.5418 65.6224 64.2329C65.4288 63.9549 65.4933 63.5533 65.7837 63.337Z" fill="#AC202B"/>
<path d="M64.9133 64.8208C65.2036 64.6354 65.5908 64.6972 65.8166 64.9753C66.0425 65.2533 65.9779 65.624 65.6876 65.8403C65.3972 66.0256 65.0101 65.9638 64.7842 65.6858C64.5584 65.4078 64.6229 65.0061 64.9133 64.8208Z" fill="#AC202B"/>
<path d="M67.4602 58.8579C67.7505 58.6726 68.1377 58.7343 68.3635 59.0124C68.5571 59.2904 68.5248 59.6611 68.2345 59.8774C67.9441 60.0627 67.557 60.0009 67.3311 59.7229C67.1053 59.4449 67.1698 59.0741 67.4602 58.8579Z" fill="#AC202B"/>
<path d="M65.4328 60.186C65.7232 60.0007 66.1103 60.0625 66.3362 60.3405C66.5297 60.6185 66.4975 60.9892 66.2071 61.2055C65.9168 61.3908 65.5296 61.3291 65.3038 61.051C65.0779 60.773 65.1425 60.4023 65.4328 60.186Z" fill="#AC202B"/>
<path d="M58.3306 67.3839C58.6532 67.1676 59.0726 67.2294 59.2984 67.5383C59.5242 67.8473 59.4597 68.2489 59.1371 68.4651C58.8145 68.6814 58.3951 68.6196 58.1692 68.3106C57.9757 68.0017 58.0402 67.6001 58.3306 67.3839Z" fill="#AC202B"/>
<path d="M59.0739 67.9391C59.203 67.8465 59.3965 67.9083 59.4933 68.0318C59.5901 68.1863 59.5901 68.3717 59.4611 68.4643C59.332 68.557 59.1384 68.4952 59.0417 68.3716C58.9449 68.2481 58.9449 68.0318 59.0739 67.9391Z" fill="#AC202B"/>
<path d="M54.8501 62.7804C55.1404 62.5641 55.5598 62.6259 55.7857 62.9348C56.0115 63.2129 55.947 63.6145 55.6244 63.8307C55.334 64.047 54.9146 63.9852 54.6888 63.6762C54.4952 63.3982 54.5597 62.9966 54.8501 62.7804Z" fill="#AC202B"/>
<path d="M60.6859 60.9276C60.8795 60.7731 61.2021 60.8349 61.3634 61.0512C61.5247 61.2674 61.4924 61.5454 61.2666 61.6999C61.073 61.8544 60.7504 61.7926 60.5891 61.5763C60.4278 61.3601 60.46 61.0512 60.6859 60.9276Z" fill="#AC202B"/>
<path d="M60.4927 56.6957C60.7508 56.5103 61.0734 56.5721 61.2669 56.8192C61.4605 57.0664 61.396 57.4062 61.1702 57.5607C60.9121 57.746 60.5895 57.6842 60.3959 57.4371C60.17 57.1899 60.2346 56.8501 60.4927 56.6957Z" fill="#AC202B"/>
<path d="M62.7811 60.4627C62.9424 60.3392 63.2005 60.4009 63.3618 60.5863C63.4909 60.7717 63.4586 61.0188 63.2973 61.1423C63.136 61.2659 62.8779 61.2041 62.7166 61.0188C62.5553 60.8334 62.5875 60.5863 62.7811 60.4627Z" fill="#AC202B"/>
<path d="M65.6207 59.3221C65.8143 59.1985 66.0724 59.2603 66.2014 59.4457C66.3305 59.631 66.2982 59.8782 66.1369 60.0017C65.9433 60.1253 65.6852 60.0635 65.5562 59.8782C65.4271 59.6928 65.4594 59.4457 65.6207 59.3221Z" fill="#AC202B"/>
<path d="M56.5231 65.5311C56.7166 65.4075 56.9747 65.4693 57.1038 65.6546C57.2328 65.84 57.2006 66.0871 57.0392 66.2416C56.8457 66.3652 56.5876 66.3034 56.4585 66.118C56.3295 65.9018 56.3618 65.6547 56.5231 65.5311Z" fill="#AC202B"/>
<path d="M58.7525 64.6346C58.9783 64.4802 59.3332 64.542 59.4945 64.7582C59.6881 65.0053 59.6235 65.3142 59.3977 65.4996C59.1719 65.6849 58.817 65.5923 58.6557 65.376C58.4621 65.1289 58.4944 64.7891 58.7525 64.6346Z" fill="#AC202B"/>
<path d="M61.0714 62.6576C61.2005 62.5649 61.4263 62.5958 61.5231 62.7503C61.6522 62.9047 61.6199 63.121 61.4908 63.2137C61.3618 63.3063 61.136 63.2754 61.0392 63.121C60.9101 62.9665 60.9424 62.7812 61.0714 62.6576Z" fill="#AC202B"/>
<path d="M65.8827 57.7752C66.0762 57.6517 66.3343 57.7134 66.4634 57.8988C66.5924 58.0842 66.5601 58.3313 66.3988 58.4549C66.2375 58.5784 65.9472 58.5167 65.8181 58.3313C65.6568 58.1768 65.6891 57.8988 65.8827 57.7752Z" fill="#AC202B"/>
<path d="M58.2992 62.5018C58.525 62.3474 58.8154 62.4091 58.9767 62.6254C59.138 62.8416 59.1057 63.1506 58.8799 63.2741C58.6541 63.4286 58.3637 63.3668 58.2024 63.1505C58.0411 62.9343 58.0733 62.6563 58.2992 62.5018Z" fill="#AC202B"/>
<path d="M59.3016 60.279C59.4307 60.1863 59.592 60.2481 59.721 60.3717C59.8178 60.4952 59.8178 60.6806 59.6888 60.7733C59.5597 60.8659 59.3984 60.8041 59.2694 60.6806C59.1726 60.5261 59.2048 60.3408 59.3016 60.279Z" fill="#AC202B"/>
<path d="M72.141 60.5873C72.27 60.4946 72.4959 60.5255 72.6249 60.6799C72.754 60.8344 72.7217 61.0507 72.5926 61.1433C72.4636 61.236 72.2378 61.2051 72.1087 61.0507C71.9797 60.8653 71.9797 60.68 72.141 60.5873Z" fill="#AC202B"/>
<path d="M73.8499 59.5077C74.0758 59.3532 74.3984 59.415 74.5597 59.6312C74.721 59.8475 74.6888 60.1564 74.4629 60.3109C74.2371 60.4653 73.9145 60.4035 73.7532 60.1873C73.5919 59.9711 73.6241 59.6621 73.8499 59.5077Z" fill="#AC202B"/>
<path d="M74.6587 56.5421C74.949 56.3258 75.3684 56.3876 75.5943 56.6965C75.8201 56.9746 75.7556 57.3762 75.433 57.5924C75.1426 57.8087 74.7232 57.7469 74.4974 57.438C74.3038 57.129 74.3683 56.7274 74.6587 56.5421Z" fill="#AC202B"/>
<path d="M69.0437 57.0057C69.2373 56.8513 69.5599 56.9131 69.7212 57.1293C69.8825 57.3455 69.8502 57.6236 69.6244 57.778C69.4308 57.9325 69.1082 57.8707 68.9469 57.6545C68.7856 57.4382 68.8501 57.1293 69.0437 57.0057Z" fill="#AC202B"/>
<path d="M72.4001 60.2494C72.5614 60.1567 72.7873 60.1876 72.9163 60.3421C73.0454 60.4965 73.0131 60.7437 72.8518 60.8364C72.6905 60.929 72.4646 60.8982 72.3356 60.7437C72.2388 60.5583 72.2388 60.3421 72.4001 60.2494Z" fill="#AC202B"/>
<path d="M72.9137 57.5897C73.075 57.4661 73.3008 57.5279 73.4299 57.7133C73.5589 57.8986 73.5267 58.1148 73.3653 58.2384C73.204 58.362 72.9782 58.3002 72.8492 58.1149C72.7201 57.9295 72.7524 57.7132 72.9137 57.5897Z" fill="#AC202B"/>
<path d="M74.977 54.5936C75.2029 54.4392 75.5255 54.5009 75.6868 54.7172C75.8481 54.9334 75.8158 55.2423 75.59 55.3968C75.3642 55.5513 75.0416 55.4895 74.8802 55.2732C74.6867 55.057 74.7512 54.7481 74.977 54.5936Z" fill="#AC202B"/>
<path d="M68.4634 59.4772C68.7215 59.3228 69.0441 59.3537 69.2377 59.6008C69.4313 59.8479 69.3668 60.1878 69.1409 60.3422C68.8828 60.4967 68.5602 60.4658 68.3666 60.2186C68.173 60.0024 68.2053 59.6626 68.4634 59.4772Z" fill="#AC202B"/>
<path d="M61.5239 45.0182C61.782 44.8638 62.1046 44.8947 62.2982 45.1418C62.4918 45.389 62.4272 45.7287 62.2014 45.8832C61.9433 46.0377 61.6207 46.0068 61.4271 45.7597C61.2335 45.5125 61.2981 45.1727 61.5239 45.0182Z" fill="#AC202B"/>
<path d="M53.977 38.4382C54.2351 38.2837 54.5578 38.3146 54.7513 38.5617C54.9449 38.8089 54.8804 39.1487 54.6545 39.3032C54.3964 39.4576 54.0738 39.4267 53.8802 39.1796C53.6867 38.9324 53.7512 38.5926 53.977 38.4382Z" fill="#AC202B"/>
<path d="M68.8824 57.6229C69.0437 57.4993 69.3018 57.5611 69.4309 57.7465C69.5599 57.9318 69.5277 58.1481 69.3664 58.2716C69.2051 58.3952 68.947 58.3334 68.8179 58.1481C68.6889 57.9627 68.7211 57.7464 68.8824 57.6229Z" fill="#AC202B"/>
<path d="M70.8822 57.3441C71.1403 57.1588 71.4952 57.2205 71.6888 57.4676C71.8824 57.7148 71.8178 58.0546 71.5597 58.24C71.3016 58.4253 70.9467 58.3636 70.7532 58.1164C70.5596 57.8693 70.6241 57.5295 70.8822 57.3441Z" fill="#AC202B"/>
<path d="M72.6234 55.1503C72.8492 54.9958 73.1718 55.0576 73.3332 55.2738C73.4945 55.4901 73.4622 55.799 73.2364 55.9844C73.0105 56.1388 72.6879 56.077 72.5266 55.8608C72.3653 55.6137 72.3975 55.3047 72.6234 55.1503Z" fill="#AC202B"/>
<path d="M64.3017 56.9718C64.6243 56.7555 65.0437 56.8173 65.2696 57.1262C65.4954 57.4352 65.4309 57.8368 65.1083 58.053C64.7856 58.2692 64.3662 58.2075 64.1404 57.8985C63.9146 57.5896 64.0114 57.188 64.3017 56.9718Z" fill="#AC202B"/>
<path d="M66.3314 55.0589C66.5895 54.8736 66.9767 54.9354 67.1703 55.1825C67.3638 55.4297 67.2993 55.8004 67.0412 55.9857C66.7831 56.1711 66.396 56.1093 66.2024 55.8621C66.0088 55.5841 66.0733 55.2134 66.3314 55.0589Z" fill="#AC202B"/>
<path d="M44.8126 46.2534C44.6836 46.3461 44.49 46.2843 44.3932 46.1607C44.2964 46.0062 44.2964 45.8209 44.4255 45.7282C44.5545 45.6355 44.7481 45.6973 44.8449 45.8209C44.9417 45.9754 44.9417 46.1607 44.8126 46.2534Z" fill="#AC202B"/>
<path d="M58.334 56.9414C58.1082 57.0958 57.7856 57.034 57.6243 56.8178C57.4629 56.6015 57.4952 56.2926 57.721 56.1073C57.9469 55.9528 58.2695 56.0146 58.4308 56.2308C58.5921 56.478 58.5599 56.7869 58.334 56.9414Z" fill="#AC202B"/>
<path d="M48.7197 45.0183C48.4939 45.1727 48.2035 45.1109 48.0422 44.8947C47.8809 44.6784 47.9132 44.4004 48.139 44.246C48.3649 44.0915 48.6552 44.1533 48.8165 44.3695C48.9778 44.5858 48.9456 44.8947 48.7197 45.0183Z" fill="#AC202B"/>
<path d="M49.3652 45.6371C49.0748 45.8225 48.6554 45.7607 48.4619 45.4827C48.2683 45.2046 48.3005 44.803 48.5909 44.6177C48.8813 44.4323 49.3007 44.4941 49.4942 44.7721C49.7201 45.0502 49.6555 45.4209 49.3652 45.6371Z" fill="#AC202B"/>
<path d="M43.4606 45.3871C43.2993 45.4798 43.1057 45.4489 42.9767 45.2945C42.8476 45.14 42.8799 44.9237 43.0089 44.8002C43.1703 44.7075 43.3638 44.7384 43.4929 44.8929C43.6542 45.0473 43.6219 45.2636 43.4606 45.3871Z" fill="#AC202B"/>
<path d="M46.4883 50.2405C46.198 50.4567 45.7786 50.3641 45.585 50.086C45.3592 49.808 45.4237 49.4064 45.7141 49.221C46.0044 49.0048 46.4238 49.0975 46.6174 49.3755C46.8432 49.6226 46.7787 50.0243 46.4883 50.2405Z" fill="#AC202B"/>
<path d="M52.1077 47.7032C51.8496 47.8886 51.4947 47.8268 51.3334 47.5796C51.1398 47.3325 51.2043 46.9927 51.4302 46.8383C51.6882 46.6529 52.0431 46.7147 52.2044 46.9618C52.398 47.2089 52.3658 47.5487 52.1077 47.7032Z" fill="#AC202B"/>
<path d="M47.4904 49.2806C47.2323 49.466 46.8452 49.4042 46.6516 49.1571C46.458 48.91 46.5226 48.5392 46.7807 48.3539C47.0388 48.1685 47.4259 48.2303 47.6195 48.4774C47.813 48.7246 47.7485 49.0953 47.4904 49.2806Z" fill="#AC202B"/>
<path d="M47.9445 45.9767C47.7832 46.1003 47.5573 46.0385 47.396 45.8531C47.267 45.6678 47.2993 45.4515 47.4606 45.328C47.6219 45.2044 47.8477 45.2662 48.009 45.4515C48.1058 45.6369 48.1058 45.884 47.9445 45.9767Z" fill="#AC202B"/>
<path d="M44.3919 40.9709C44.2306 41.0944 44.0047 41.0326 43.8434 40.8473C43.6821 40.6619 43.7467 40.4457 43.908 40.3221C44.0693 40.1985 44.2951 40.2603 44.4564 40.4457C44.6177 40.631 44.5532 40.8782 44.3919 40.9709Z" fill="#AC202B"/>
<path d="M44.6202 48.8164C44.3944 48.9708 44.0717 48.9091 43.8782 48.6928C43.7169 48.4766 43.7491 48.1367 43.9749 47.9823C44.2008 47.8278 44.5234 47.8896 44.717 48.1059C44.8783 48.3221 44.846 48.6619 44.6202 48.8164Z" fill="#AC202B"/>
<path d="M52.7492 52.2463C52.5879 52.3698 52.3298 52.308 52.2007 52.1227C52.0717 51.9373 52.1039 51.7211 52.2652 51.5975C52.4266 51.4739 52.6847 51.5357 52.8137 51.7211C52.9428 51.8755 52.9105 52.1227 52.7492 52.2463Z" fill="#AC202B"/>
<path d="M51.298 47.3024C51.0722 47.4568 50.7173 47.395 50.556 47.1788C50.3625 46.9316 50.427 46.6227 50.6528 46.4374C50.8786 46.2829 51.2335 46.3447 51.3948 46.5609C51.5884 46.8081 51.5561 47.1479 51.298 47.3024Z" fill="#AC202B"/>
<path d="M48.8459 50.8877C48.5878 51.0731 48.2007 51.0113 48.0071 50.7641C47.8135 50.4861 47.878 50.1463 48.1361 49.93C48.3942 49.7447 48.7814 49.8064 48.9749 50.0536C49.1685 50.3316 49.104 50.7023 48.8459 50.8877Z" fill="#AC202B"/>
<path d="M63.3624 62.7169C63.2011 62.8405 62.9431 62.7787 62.814 62.5934C62.685 62.408 62.7172 62.1609 62.8785 62.0682C63.0398 61.9446 63.2979 62.0064 63.427 62.1918C63.556 62.3462 63.5238 62.5934 63.3624 62.7169Z" fill="#AC202B"/>
<path d="M54.5548 48.9721C54.4258 49.0648 54.2322 49.003 54.1354 48.8795C54.0386 48.725 54.0386 48.5396 54.1677 48.447C54.2967 48.3543 54.4903 48.4161 54.5871 48.5397C54.6839 48.6941 54.6839 48.8794 54.5548 48.9721Z" fill="#AC202B"/>
<path d="M53.7834 52.8012C53.5254 52.9556 53.2027 52.9247 53.0092 52.6776C52.8156 52.4305 52.8801 52.0907 53.1059 51.9362C53.364 51.7818 53.6867 51.8126 53.8802 52.0598C54.0738 52.3069 54.0415 52.6467 53.7834 52.8012Z" fill="#AC202B"/>
<path d="M49.5578 54.0079C49.3965 54.1315 49.1384 54.0697 49.0093 53.8844C48.8803 53.699 48.9125 53.4828 49.0738 53.3592C49.2352 53.2356 49.4933 53.2974 49.6223 53.4828C49.7513 53.6681 49.7191 53.8844 49.5578 54.0079Z" fill="#AC202B"/>
<path d="M49.9728 55.7987C49.8437 55.8914 49.6824 55.8296 49.5534 55.706C49.4566 55.5515 49.4566 55.3971 49.5856 55.3044C49.7147 55.2117 49.876 55.2735 50.005 55.3971C50.1341 55.5206 50.0695 55.706 49.9728 55.7987Z" fill="#AC202B"/>
<path d="M56.7197 51.9401C56.5261 52.0946 56.2035 52.0328 56.0422 51.8166C55.8809 51.6003 55.9132 51.3223 56.139 51.1678C56.3326 51.0134 56.6552 51.0751 56.8165 51.2914C56.9778 51.5076 56.9456 51.7857 56.7197 51.9401Z" fill="#AC202B"/>
<path d="M52.9768 52.2146C52.7832 52.3382 52.5251 52.2764 52.396 52.0911C52.267 51.9057 52.2993 51.6586 52.4606 51.535C52.6219 51.4114 52.9122 51.4732 53.0413 51.6586C53.1703 51.8439 53.1703 52.091 52.9768 52.2146Z" fill="#AC202B"/>
<path d="M51.4913 57.7755C51.3945 57.8373 51.2009 57.8064 51.1041 57.6829C51.0074 57.5593 51.0074 57.3739 51.1364 57.3121C51.2332 57.2504 51.4268 57.2813 51.5236 57.4048C51.5881 57.5284 51.5881 57.6828 51.4913 57.7755Z" fill="#AC202B"/>
<path d="M51.2033 54.6873C51.042 54.8108 50.7839 54.7491 50.6226 54.5637C50.4935 54.3784 50.5258 54.1312 50.6871 54.0076C50.8484 53.8841 51.1065 53.9459 51.2678 54.1312C51.3969 54.3166 51.3646 54.5637 51.2033 54.6873Z" fill="#AC202B"/>
<path d="M64.7502 63.9236C64.5889 64.0472 64.3308 63.9854 64.1695 63.8C64.0404 63.6147 64.0727 63.3675 64.234 63.244C64.3953 63.1204 64.6534 63.1822 64.8147 63.3675C64.9438 63.5529 64.9115 63.8 64.7502 63.9236Z" fill="#AC202B"/>
<path d="M58.1379 55.8925C57.9121 56.047 57.5572 55.9852 57.3959 55.769C57.2023 55.5218 57.2668 55.2129 57.4927 55.0585C57.7185 54.904 58.0734 54.9658 58.2347 55.182C58.396 55.3983 58.3637 55.7381 58.1379 55.8925Z" fill="#AC202B"/>
<path d="M53.9102 52.678C53.5875 52.8942 53.1681 52.8325 52.9423 52.5235C52.7165 52.2146 52.781 51.813 53.1036 51.5968C53.4262 51.3805 53.8456 51.4423 54.0715 51.7512C54.2973 52.0293 54.2328 52.4618 53.9102 52.678Z" fill="#AC202B"/>
<path d="M54.0717 53.6692C53.8782 53.7927 53.5878 53.7618 53.4588 53.5456C53.2974 53.3602 53.3297 53.0822 53.5233 52.9277C53.7168 52.8042 54.0072 52.8351 54.1363 53.0513C54.2976 53.2676 54.2653 53.5147 54.0717 53.6692Z" fill="#AC202B"/>
<path d="M40.7179 45.7599C40.5566 45.8835 40.2985 45.8217 40.1695 45.6364C40.0404 45.451 40.0727 45.2347 40.234 45.1112C40.3953 44.9876 40.6534 45.0494 40.7824 45.2347C40.9115 45.4201 40.8792 45.6673 40.7179 45.7599Z" fill="#AC202B"/>
<path d="M55.876 54.194C55.6824 54.3485 55.3598 54.2867 55.1985 54.0705C55.0372 53.8542 55.0694 53.5762 55.2953 53.4217C55.5211 53.2673 55.8115 53.3291 55.9728 53.5453C56.1341 53.7616 56.1018 54.0396 55.876 54.194Z" fill="#AC202B"/>
<path d="M55.716 57.5915C55.4579 57.7769 55.103 57.7151 54.9094 57.468C54.7159 57.2208 54.7804 56.881 55.0385 56.6957C55.2966 56.5103 55.6514 56.5721 55.845 56.8192C56.0063 57.0664 55.9741 57.4062 55.716 57.5915Z" fill="#AC202B"/>
<path d="M54.1387 60.2797C53.9129 60.4341 53.6225 60.3723 53.4289 60.1561C53.2676 59.9398 53.2999 59.6309 53.5257 59.4764C53.7516 59.322 54.0419 59.3838 54.2355 59.6C54.3968 59.8471 54.3323 60.1252 54.1387 60.2797Z" fill="#AC202B"/>
<path d="M53.8145 63.0902C53.5887 63.2446 53.2983 63.1828 53.1047 62.9666C52.9434 62.7504 52.9757 62.4414 53.2015 62.287C53.4273 62.1325 53.7177 62.1943 53.9113 62.4105C54.0726 62.6268 54.0403 62.9357 53.8145 63.0902Z" fill="#AC202B"/>
<path d="M52.8497 56.8793C52.6238 57.0337 52.3335 56.9719 52.1399 56.7557C51.9786 56.5394 52.0108 56.2305 52.2367 56.076C52.4625 55.9216 52.7529 55.9834 52.9464 56.1996C53.1077 56.4159 53.0755 56.7248 52.8497 56.8793Z" fill="#AC202B"/>
<path d="M54.3936 60.5565C54.2646 60.6491 54.1033 60.5874 54.0065 60.4638C53.9097 60.3402 53.9097 60.1549 54.0388 60.0622C54.1678 59.9695 54.3291 60.0313 54.4259 60.1549C54.5227 60.3093 54.4904 60.4947 54.3936 60.5565Z" fill="#AC202B"/>
<path d="M59.9787 55.6127C59.7206 55.798 59.3335 55.7363 59.1399 55.4891C58.9463 55.242 59.0109 54.8712 59.2689 54.6859C59.527 54.5005 59.9142 54.5623 60.1078 54.8095C60.3013 55.0566 60.2691 55.4273 59.9787 55.6127Z" fill="#AC202B"/>
<path d="M58.0732 60.401C57.7829 60.6172 57.3634 60.5554 57.1376 60.2465C56.9118 59.9685 56.9763 59.5669 57.2989 59.3507C57.5893 59.1344 58.0087 59.1962 58.2345 59.5051C58.4281 59.7832 58.3636 60.1847 58.0732 60.401Z" fill="#AC202B"/>
<path d="M63.913 60.0943C63.6227 60.3106 63.2033 60.2488 62.9774 59.9399C62.7516 59.6619 62.8161 59.2603 63.1388 59.044C63.4291 58.8278 63.8485 58.8896 64.0743 59.1985C64.3002 59.4765 64.2357 59.8781 63.913 60.0943Z" fill="#AC202B"/>
<path d="M70.2021 56.5104C69.9117 56.7266 69.4923 56.6649 69.2665 56.3559C69.0407 56.0779 69.1052 55.6763 69.4278 55.4601C69.7182 55.2438 70.1376 55.3056 70.3634 55.6145C70.557 55.9234 70.4925 56.325 70.2021 56.5104Z" fill="#AC202B"/>
<path d="M70.8818 52.4635C70.5914 52.6798 70.172 52.618 69.9462 52.3091C69.7204 52.031 69.7849 51.6294 70.1075 51.4132C70.3979 51.1969 70.8173 51.2587 71.0431 51.5676C71.2689 51.8766 71.2044 52.2782 70.8818 52.4635Z" fill="#AC202B"/>
<path d="M70.3349 49.901C70.0446 50.1172 69.6252 50.0554 69.3993 49.7465C69.1735 49.4685 69.238 49.0669 69.5606 48.8507C69.851 48.6344 70.2704 48.6962 70.4962 49.0051C70.7221 49.3141 70.6576 49.7156 70.3349 49.901Z" fill="#AC202B"/>
<path d="M57.2032 61.9471C57.0742 62.0398 56.8806 61.978 56.7838 61.8544C56.6871 61.7 56.687 61.5146 56.8161 61.4528C56.9451 61.3601 57.1387 61.4219 57.2355 61.5455C57.3323 61.7 57.3323 61.8853 57.2032 61.9471Z" fill="#AC202B"/>
<path d="M61.4628 59.1957C61.1725 59.3811 60.7531 59.3193 60.5595 59.0413C60.3659 58.7632 60.3982 58.3616 60.6886 58.1763C60.9789 57.9909 61.3983 58.0527 61.5919 58.3307C61.8177 58.6088 61.7532 58.9795 61.4628 59.1957Z" fill="#AC202B"/>
<path d="M63.8486 55.5222C63.6551 55.6766 63.3324 55.6148 63.1711 55.3986C63.0098 55.1823 63.0421 54.9043 63.2679 54.7499C63.4615 54.5954 63.7841 54.6572 63.9454 54.8734C64.1067 55.0897 64.0745 55.3677 63.8486 55.5222Z" fill="#AC202B"/>
<path d="M62.2989 52.6193C62.1376 52.7428 61.9118 52.681 61.7828 52.4957C61.6537 52.3103 61.686 52.0941 61.8473 51.9705C62.0086 51.847 62.2344 51.9088 62.3635 52.0941C62.4925 52.2795 62.4602 52.4957 62.2989 52.6193Z" fill="#AC202B"/>
<path d="M63.0756 55.275C62.8821 55.3985 62.624 55.3676 62.4627 55.1514C62.3013 54.966 62.3336 54.688 62.5272 54.5645C62.7208 54.4409 62.9789 54.4718 63.1402 54.688C63.3015 54.8734 63.2692 55.1514 63.0756 55.275Z" fill="#AC202B"/>
<path d="M61.7161 30.0393L62.4904 30.3791L64.2003 31.1514C64.5874 31.3368 64.9423 31.553 65.2327 31.8311C65.4262 32.0164 65.6198 32.2327 65.7811 32.4798L67.2652 34.704C67.3942 34.8894 67.6846 34.8585 67.7814 34.6732L68.8137 32.5725C69.0073 32.2018 69.2332 31.8311 69.5235 31.5221C69.8461 31.1514 70.201 30.8425 70.6527 30.5954L71.2334 30.2556L72.6852 29.3906C72.8788 29.267 72.8465 28.989 72.6529 28.8963L70.3301 27.846C69.588 27.5062 68.9428 26.9501 68.4911 26.2705L67.1039 24.2007C66.9748 24.0154 66.6844 24.0462 66.5877 24.2316L65.4262 26.6103C65.1359 27.2282 64.652 27.7533 64.039 28.124L61.7161 29.5141C61.4903 29.6686 61.5225 29.9467 61.7161 30.0393Z" fill="#FCEEB8"/>
<path d="M67.5263 35.0736C67.3328 35.0736 67.1715 34.9809 67.0747 34.8265L65.5906 32.6022C65.4293 32.386 65.268 32.1697 65.0744 32.0153C64.7841 31.7373 64.4615 31.521 64.1066 31.3665L61.6224 30.2544C61.4611 30.1926 61.332 30.0073 61.332 29.8219C61.332 29.6366 61.3966 29.4512 61.5901 29.3585L63.913 27.9684C64.4937 27.6286 64.9454 27.1343 65.2035 26.5473L66.3649 24.1687C66.4617 24.0142 66.623 23.8906 66.8166 23.8906C67.0101 23.8906 67.2037 23.9833 67.3005 24.1378L68.6878 26.2075C69.1072 26.8563 69.7202 27.3506 70.4299 27.6904L72.7528 28.7098C72.9141 28.7716 73.0431 28.9569 73.0431 29.1423C73.0431 29.3276 72.9786 29.513 72.785 29.6057L70.7525 30.8414C70.3654 31.0885 70.0105 31.3974 69.6879 31.7372C69.4298 32.0462 69.204 32.386 69.0104 32.7258L67.978 34.8265C67.9135 34.9809 67.7199 35.1045 67.5263 35.1045C67.5263 35.0736 67.5263 35.0736 67.5263 35.0736ZM66.5585 24.2304L66.7843 24.3231L65.6229 26.7018C65.3003 27.3814 64.7841 27.9375 64.1388 28.3082L61.816 29.6984V29.7601L64.3001 30.8723C64.7195 31.0576 65.0744 31.3047 65.3971 31.6137C65.6229 31.799 65.8165 32.0461 65.9778 32.2933L67.4618 34.5175H67.5586L68.591 32.4169C68.7846 32.0153 69.0426 31.6446 69.333 31.3047C69.6556 30.934 70.075 30.5942 70.4945 30.3162L72.527 29.0805V28.9878L70.2041 27.9375C69.3975 27.5668 68.72 27.0108 68.2684 26.3002L66.8811 24.2304H66.5585Z" fill="#1C1C1A"/>
<path d="M57.5236 20.9228L59.0721 21.6333C59.4916 21.8187 59.8142 22.0967 60.0723 22.4674L60.6853 23.3942L60.9756 23.8576C61.0401 23.9811 61.2337 23.9503 61.2982 23.8267L61.3628 23.7031L61.9435 22.4983C61.9757 22.4056 62.0403 22.3438 62.0725 22.2512C62.3306 21.8496 62.6532 21.5098 63.0726 21.2626L64.3309 20.4903C64.4599 20.4285 64.4276 20.2432 64.2986 20.1814L62.8468 19.5327C62.3629 19.3164 61.9757 18.9766 61.6854 18.5441L60.8143 17.2466C60.7498 17.1231 60.5562 17.154 60.4917 17.2775L59.7497 18.7604C59.5561 19.162 59.2657 19.4709 58.8786 19.718L57.8462 20.3359L57.4268 20.583C57.3623 20.7066 57.3945 20.861 57.5236 20.9228Z" fill="#FCEEB8"/>
<path d="M61.1352 24.1686C61.0061 24.1686 60.8448 24.1068 60.7803 23.9833L59.8447 22.5931C59.6189 22.2533 59.3285 22.0061 58.9736 21.8517L57.4251 21.1411C57.296 21.0794 57.1992 20.9558 57.1992 20.8013C57.1992 20.6469 57.2637 20.5233 57.3928 20.4307L58.8446 19.5657C59.1995 19.3494 59.4576 19.0714 59.6189 18.7007L60.3609 17.2179C60.4254 17.0943 60.5545 17.0016 60.7158 16.9707C60.8771 16.9707 61.0061 17.0325 61.1029 17.156L61.974 18.4535C62.2321 18.8551 62.587 19.1641 63.0386 19.3494L64.4904 19.9982C64.6195 20.0599 64.7163 20.1835 64.7485 20.338C64.7485 20.4924 64.684 20.616 64.555 20.7086L63.2967 21.481C62.9096 21.6972 62.587 22.037 62.3611 22.4077C62.3289 22.4695 62.2643 22.5622 62.2321 22.624L61.5868 23.9214C61.4578 24.0759 61.3288 24.1377 61.1352 24.1686ZM57.7154 20.7705L59.1672 21.4192C59.6189 21.6045 60.006 21.9444 60.2641 22.346L61.1352 23.6434L61.7159 22.4386C61.7482 22.346 61.8127 22.2533 61.8772 22.1606C62.1353 21.7281 62.5224 21.3574 62.9419 21.0794L64.1356 20.3688L62.7805 19.751C62.2644 19.5039 61.8127 19.164 61.5223 18.7007L60.7158 17.4959L60.0383 18.886C59.8447 19.3185 59.4898 19.6892 59.0704 19.9363L57.7154 20.7705Z" fill="#1C1C1A"/>
<path d="M55.6869 35.9972C55.0417 36.9857 55.3643 38.2832 56.3967 38.9011L52.3962 36.5224C51.267 35.8428 49.783 36.1826 49.0732 37.2638C48.3634 38.345 48.7183 39.766 49.8475 40.4457L48.428 39.6116C47.2988 38.932 45.8148 39.2718 45.105 40.353C44.3952 41.4342 44.7501 42.8553 45.8793 43.5349L47.2988 44.369C46.1696 43.6894 44.6856 44.0292 43.9758 45.1104C43.2661 46.1916 43.6209 47.6127 44.7501 48.2923L58.2356 56.3243L52.1704 56.1389C50.6863 56.0771 49.4281 57.2201 49.3636 58.6412C49.2991 60.0622 50.4927 61.267 51.9768 61.3288L59.752 61.5759C62.3652 61.6995 67.9465 61.267 71.3663 63.3059L77.8187 67.1365L85.7229 54.965L77.5606 50.0841C72.3664 46.9948 73.0439 43.8438 66.8819 40.1368L58.7196 35.2867C57.6872 34.7306 56.3322 35.0086 55.6869 35.9972Z" fill="#FCF5F5"/>
<path d="M77.9475 67.5995L71.237 63.6144C68.527 62.008 64.3007 61.9771 61.4939 61.9462C60.8487 61.9462 60.268 61.9462 59.784 61.9153L52.0411 61.6682C50.3635 61.6064 49.073 60.278 49.1053 58.6716C49.1698 57.0961 50.4926 55.8604 52.1379 55.8604C52.1702 55.8604 52.2024 55.8604 52.2347 55.8604L57.074 56.0149L44.5886 48.5699C43.2981 47.7976 42.911 46.1912 43.7175 44.9555C44.1047 44.3685 44.7177 43.9361 45.4274 43.7816C45.492 43.7507 45.5887 43.7507 45.6533 43.7507C44.4273 42.9784 44.0724 41.4029 44.8467 40.1981C45.621 38.9933 47.2664 38.6226 48.5246 39.3022C48.4923 39.2404 48.4923 39.1478 48.4601 39.086C48.2988 38.4063 48.4278 37.6958 48.8149 37.1089C49.2021 36.5219 49.8151 36.0894 50.5248 35.935C51.2346 35.7805 51.9766 35.9041 52.5896 36.2748L55.1706 37.7885C55.1706 37.7576 55.1383 37.6958 55.1383 37.6649C54.977 37.0471 55.106 36.3983 55.4609 35.8423C55.8158 35.2862 56.3643 34.9155 57.0418 34.7611C57.687 34.6066 58.3645 34.7302 58.9452 35.07L67.1075 39.9201C70.3982 41.8663 71.7532 43.658 73.076 45.388C74.2374 46.9326 75.3666 48.3845 77.7862 49.8365L86.2389 54.8719L77.9475 67.5995ZM52.1057 56.4783C50.8152 56.4783 49.7505 57.4668 49.7183 58.7025C49.686 59.9691 50.7184 61.0194 52.0089 61.0503L59.784 61.2975C60.268 61.3283 60.8487 61.3283 61.4617 61.3283C64.333 61.3592 68.6561 61.3593 71.5274 63.0892L77.6894 66.7654L85.2388 55.119L77.3346 50.4234C74.7859 48.9097 73.6567 47.396 72.4307 45.8205C71.1403 44.1214 69.8175 42.3915 66.6558 40.507L58.4935 35.6569C58.0741 35.4098 57.5579 35.3171 57.074 35.4407C56.5901 35.5643 56.1707 35.8423 55.9126 36.2439C55.6545 36.6455 55.5577 37.1398 55.6867 37.6032C55.8158 38.0665 56.1062 38.4681 56.5256 38.7153L56.1707 39.2404L52.1702 36.8617C51.6863 36.5837 51.1378 36.491 50.5894 36.6146C50.0409 36.7382 49.5892 37.0471 49.2989 37.5105C49.0085 37.9739 48.9117 38.499 49.0408 39.0242C49.1698 39.5494 49.4924 39.9819 49.9764 40.2599L49.6215 40.785L48.202 39.951C47.2341 39.364 45.9114 39.642 45.3306 40.5997C44.7177 41.5265 45.008 42.793 46.0081 43.3491L47.4277 44.1832L47.0728 44.7084C46.5889 44.4303 46.0404 44.3376 45.492 44.4612C44.9435 44.5848 44.4918 44.8937 44.2015 45.3571C43.5885 46.2839 43.8788 47.5504 44.879 48.1065L59.3969 56.7563L52.1379 56.54C52.1702 56.4783 52.1379 56.4783 52.1057 56.4783Z" fill="#1C1C1A"/>
<path d="M78.8828 67.7845L86.787 55.613C87.1419 55.0569 86.9806 54.3155 86.3999 53.9448C85.8192 53.605 85.0449 53.7594 84.6577 54.3155L76.7535 66.487C76.3986 67.0431 76.56 67.7845 77.1407 68.1552C77.7537 68.5259 78.5279 68.3714 78.8828 67.7845Z" fill="#1C1C1A"/>
<path d="M47.2969 44.3691L59.1693 51.4434" stroke="#1D1C1A" stroke-width="0.413952" stroke-miterlimit="10" stroke-linecap="round"/>
<path d="M49.8477 40.4473L61.7201 47.5216" stroke="#1D1C1A" stroke-width="0.413952" stroke-miterlimit="10" stroke-linecap="round"/>
<path d="M56.3945 38.9004L64.2665 43.596" stroke="#1D1C1A" stroke-width="0.413952" stroke-miterlimit="10" stroke-linecap="round"/>
<defs>
<linearGradient id="paint0_linear_90_5" x1="57.2734" y1="-2.97505e-07" x2="57.2734" y2="38.077" gradientUnits="userSpaceOnUse">
<stop offset="0.290284" stop-color="#FFDB6E" stop-opacity="0.49"/>
<stop offset="1" stop-color="#FFF9E7" stop-opacity="0.17"/>
</linearGradient>
</defs>
</svg>
